<svg width="20" height="20" viewBox="0 0 20 20" fill="none" xmlns="http://www.w3.org/2000/svg">
<g clip-path="url(#clip0_837_9713)">
<rect width="20" height="20" fill="white" fill-opacity="0.01"/>
<path fill-rule="evenodd" clip-rule="evenodd" d="M18.4562 0.0945796C18.5467 0.150573 18.6215 0.228762 18.6733 0.321734C18.7251 0.414706 18.7524 0.519379 18.7524 0.62583V19.3758C18.7524 19.5416 18.6866 19.7006 18.5694 19.8178C18.4522 19.935 18.2932 20.0008 18.1274 20.0008H14.3774C14.2117 20.0008 14.0527 19.935 13.9355 19.8178C13.8183 19.7006 13.7524 19.5416 13.7524 19.3758V17.5008H12.5024V19.3758C12.5024 19.5416 12.4366 19.7006 12.3194 19.8178C12.2022 19.935 12.0432 20.0008 11.8774 20.0008H0.627441C0.461681 20.0008 0.30271 19.935 0.1855 19.8178C0.0682894 19.7006 0.00244141 19.5416 0.00244141 19.3758V12.5008C0.00254096 12.3697 0.0438765 12.2419 0.120598 12.1356C0.197319 12.0293 0.305539 11.9498 0.429941 11.9083L7.50244 9.55083V5.62583C7.50245 5.50986 7.53472 5.39617 7.59565 5.29749C7.65657 5.19881 7.74376 5.11904 7.84744 5.06708L17.8474 0.0670796C17.9428 0.0193369 18.0488 -0.00320019 18.1554 0.00161341C18.2619 0.00642702 18.3655 0.0384311 18.4562 0.0945796ZM7.50244 10.8683L1.25244 12.9508V18.7508H7.50244V10.8683ZM8.75244 18.7508H11.2524V16.8758C11.2524 16.7101 11.3183 16.5511 11.4355 16.4339C11.5527 16.3167 11.7117 16.2508 11.8774 16.2508H14.3774C14.5432 16.2508 14.7022 16.3167 14.8194 16.4339C14.9366 16.5511 15.0024 16.7101 15.0024 16.8758V18.7508H17.5024V1.63708L8.75244 6.01208V18.7508Z" fill="black" fill-opacity="0.55"/>
<path d="M2.50244 13.7508H3.75244V15.0008H2.50244V13.7508ZM5.00244 13.7508H6.25244V15.0008H5.00244V13.7508ZM2.50244 16.2508H3.75244V17.5008H2.50244V16.2508ZM5.00244 16.2508H6.25244V17.5008H5.00244V16.2508ZM10.0024 11.2508H11.2524V12.5008H10.0024V11.2508ZM12.5024 11.2508H13.7524V12.5008H12.5024V11.2508ZM10.0024 13.7508H11.2524V15.0008H10.0024V13.7508ZM12.5024 13.7508H13.7524V15.0008H12.5024V13.7508ZM15.0024 11.2508H16.2524V12.5008H15.0024V11.2508ZM15.0024 13.7508H16.2524V15.0008H15.0024V13.7508ZM10.0024 8.75083H11.2524V10.0008H10.0024V8.75083ZM12.5024 8.75083H13.7524V10.0008H12.5024V8.75083ZM15.0024 8.75083H16.2524V10.0008H15.0024V8.75083ZM10.0024 6.25083H11.2524V7.50083H10.0024V6.25083ZM12.5024 6.25083H13.7524V7.50083H12.5024V6.25083ZM15.0024 6.25083H16.2524V7.50083H15.0024V6.25083ZM15.0024 3.75083H16.2524V5.00083H15.0024V3.75083Z" fill="black" fill-opacity="0.55"/>
</g>
<defs>
<clipPath id="clip0_837_9713">
<rect width="20" height="20" fill="white"/>
</clipPath>
</defs>
</svg>
