<svg width="20" height="20" viewBox="0 0 20 20" fill="none" xmlns="http://www.w3.org/2000/svg">
<g clip-path="url(#clip0_837_9733)">
<rect width="20" height="20" fill="white" fill-opacity="0.01"/>
<path d="M10.0024 10.001C10.997 10.001 11.9508 9.60589 12.6541 8.90263C13.3574 8.19937 13.7524 7.24554 13.7524 6.25098C13.7524 5.25641 13.3574 4.30259 12.6541 3.59933C11.9508 2.89606 10.997 2.50098 10.0024 2.50098C9.00788 2.50098 8.05405 2.89606 7.35079 3.59933C6.64753 4.30259 6.25244 5.25641 6.25244 6.25098C6.25244 7.24554 6.64753 8.19937 7.35079 8.90263C8.05405 9.60589 9.00788 10.001 10.0024 10.001ZM12.5024 6.25098C12.5024 6.91402 12.239 7.5499 11.7702 8.01874C11.3014 8.48758 10.6655 8.75098 10.0024 8.75098C9.3394 8.75098 8.70352 8.48758 8.23467 8.01874C7.76583 7.5499 7.50244 6.91402 7.50244 6.25098C7.50244 5.58794 7.76583 4.95205 8.23467 4.48321C8.70352 4.01437 9.3394 3.75098 10.0024 3.75098C10.6655 3.75098 11.3014 4.01437 11.7702 4.48321C12.239 4.95205 12.5024 5.58794 12.5024 6.25098ZM17.5024 16.251C17.5024 17.501 16.2524 17.501 16.2524 17.501H3.75244C3.75244 17.501 2.50244 17.501 2.50244 16.251C2.50244 15.001 3.75244 11.251 10.0024 11.251C16.2524 11.251 17.5024 15.001 17.5024 16.251ZM16.2524 16.246C16.2512 15.9385 16.0599 15.0135 15.2124 14.166C14.3974 13.351 12.8637 12.501 10.0024 12.501C7.13994 12.501 5.60744 13.351 4.79244 14.166C3.94494 15.0135 3.75494 15.9385 3.75244 16.246H16.2524Z" fill="black" fill-opacity="0.55"/>
</g>
<defs>
<clipPath id="clip0_837_9733">
<rect width="20" height="20" fill="white"/>
</clipPath>
</defs>
</svg>
