<svg width="12" height="17" viewBox="0 0 12 17" fill="none" xmlns="http://www.w3.org/2000/svg">
<path d="M10.166 9.44C9.642 10.502 8.932 11.56 8.206 12.51C7.5173 13.4056 6.7809 14.2635 6 15.08C5.21908 14.2635 4.48268 13.4056 3.794 12.51C3.068 11.56 2.358 10.502 1.834 9.44C1.304 8.367 1 7.362 1 6.5C1 5.17392 1.52678 3.90215 2.46447 2.96447C3.40215 2.02678 4.67392 1.5 6 1.5C7.32608 1.5 8.59785 2.02678 9.53553 2.96447C10.4732 3.90215 11 5.17392 11 6.5C11 7.362 10.695 8.367 10.166 9.44ZM6 16.5C6 16.5 12 10.814 12 6.5C12 4.9087 11.3679 3.38258 10.2426 2.25736C9.11742 1.13214 7.5913 0.5 6 0.5C4.4087 0.5 2.88258 1.13214 1.75736 2.25736C0.632141 3.38258 2.37122e-08 4.9087 0 6.5C0 10.814 6 16.5 6 16.5Z" fill="#212529"/>
<path d="M6 8.5C5.46957 8.5 4.96086 8.28929 4.58579 7.91421C4.21071 7.53914 4 7.03043 4 6.5C4 5.96957 4.21071 5.46086 4.58579 5.08579C4.96086 4.71071 5.46957 4.5 6 4.5C6.53043 4.5 7.03914 4.71071 7.41421 5.08579C7.78929 5.46086 8 5.96957 8 6.5C8 7.03043 7.78929 7.53914 7.41421 7.91421C7.03914 8.28929 6.53043 8.5 6 8.5ZM6 9.5C6.79565 9.5 7.55871 9.18393 8.12132 8.62132C8.68393 8.05871 9 7.29565 9 6.5C9 5.70435 8.68393 4.94129 8.12132 4.37868C7.55871 3.81607 6.79565 3.5 6 3.5C5.20435 3.5 4.44129 3.81607 3.87868 4.37868C3.31607 4.94129 3 5.70435 3 6.5C3 7.29565 3.31607 8.05871 3.87868 8.62132C4.44129 9.18393 5.20435 9.5 6 9.5Z" fill="#212529"/>
</svg>
