<svg width="24" height="24" viewBox="0 0 24 24" fill="none" xmlns="http://www.w3.org/2000/svg">
<path fill-rule="evenodd" clip-rule="evenodd" d="M22.5029 12.0011C22.5029 11.8022 22.4239 11.6114 22.2833 11.4707C22.1426 11.3301 21.9518 11.2511 21.7529 11.2511H4.06343L8.78393 6.53207C8.85366 6.46234 8.90897 6.37955 8.94671 6.28844C8.98445 6.19734 9.00387 6.09969 9.00387 6.00107C9.00387 5.90245 8.98445 5.8048 8.94671 5.71369C8.90897 5.62259 8.85366 5.5398 8.78393 5.47007C8.7142 5.40034 8.63141 5.34502 8.5403 5.30728C8.44919 5.26955 8.35154 5.25012 8.25293 5.25012C8.15431 5.25012 8.05666 5.26955 7.96555 5.30728C7.87444 5.34502 7.79166 5.40034 7.72193 5.47007L1.72193 11.4701C1.65208 11.5397 1.59667 11.6225 1.55886 11.7136C1.52105 11.8047 1.50159 11.9024 1.50159 12.0011C1.50159 12.0997 1.52105 12.1974 1.55886 12.2885C1.59667 12.3796 1.65208 12.4624 1.72193 12.5321L7.72193 18.5321C7.79166 18.6018 7.87444 18.6571 7.96555 18.6949C8.05666 18.7326 8.15431 18.752 8.25293 18.752C8.35154 18.752 8.44919 18.7326 8.5403 18.6949C8.63141 18.6571 8.7142 18.6018 8.78393 18.5321C8.85366 18.4623 8.90897 18.3796 8.94671 18.2884C8.98445 18.1973 9.00387 18.0997 9.00387 18.0011C9.00387 17.9025 8.98445 17.8048 8.94671 17.7137C8.90897 17.6226 8.85366 17.5398 8.78393 17.4701L4.06343 12.7511H21.7529C21.9518 12.7511 22.1426 12.6721 22.2833 12.5314C22.4239 12.3907 22.5029 12.2 22.5029 12.0011Z" fill="white"/>
</svg>
