<svg width="32" height="32" viewBox="0 0 32 32" fill="none" xmlns="http://www.w3.org/2000/svg">
<rect width="32" height="32" rx="16" fill="#ADB5BD"/>
<g clip-path="url(#clip0_574_9933)">
<rect width="18" height="18" transform="translate(7 7)" fill="white" fill-opacity="0.01"/>
<path d="M15.9995 15.999C16.8946 15.999 17.7531 15.6434 18.386 15.0105C19.0189 14.3776 19.3745 13.5191 19.3745 12.624C19.3745 11.7289 19.0189 10.8705 18.386 10.2375C17.7531 9.6046 16.8946 9.24902 15.9995 9.24902C15.1044 9.24902 14.246 9.6046 13.613 10.2375C12.9801 10.8705 12.6245 11.7289 12.6245 12.624C12.6245 13.5191 12.9801 14.3776 13.613 15.0105C14.246 15.6434 15.1044 15.999 15.9995 15.999ZM18.2495 12.624C18.2495 13.2208 18.0125 13.7931 17.5905 14.215C17.1685 14.637 16.5962 14.874 15.9995 14.874C15.4028 14.874 14.8305 14.637 14.4085 14.215C13.9866 13.7931 13.7495 13.2208 13.7495 12.624C13.7495 12.0273 13.9866 11.455 14.4085 11.033C14.8305 10.6111 15.4028 10.374 15.9995 10.374C16.5962 10.374 17.1685 10.6111 17.5905 11.033C18.0125 11.455 18.2495 12.0273 18.2495 12.624ZM22.7495 21.624C22.7495 22.749 21.6245 22.749 21.6245 22.749H10.3745C10.3745 22.749 9.24951 22.749 9.24951 21.624C9.24951 20.499 10.3745 17.124 15.9995 17.124C21.6245 17.124 22.7495 20.499 22.7495 21.624ZM21.6245 21.6195C21.6234 21.3428 21.4513 20.5103 20.6885 19.7475C19.955 19.014 18.5746 18.249 15.9995 18.249C13.4233 18.249 12.044 19.014 11.3105 19.7475C10.5478 20.5103 10.3768 21.3428 10.3745 21.6195H21.6245Z" fill="white"/>
</g>
<defs>
<clipPath id="clip0_574_9933">
<rect width="18" height="18" fill="white" transform="translate(7 7)"/>
</clipPath>
</defs>
</svg>
