<svg width="18" height="18" viewBox="0 0 18 18" fill="none" xmlns="http://www.w3.org/2000/svg">
<rect width="18" height="18" fill="white" fill-opacity="0.01"/>
<path d="M9 1.125C9.59674 1.125 10.169 1.36205 10.591 1.78401C11.0129 2.20597 11.25 2.77826 11.25 3.375V7.875H6.75V3.375C6.75 2.77826 6.98705 2.20597 7.40901 1.78401C7.83097 1.36205 8.40326 1.125 9 1.125ZM12.375 7.875V3.375C12.375 2.47989 12.0194 1.62145 11.3865 0.988515C10.7536 0.355579 9.89511 0 9 0C8.10489 0 7.24645 0.355579 6.61351 0.988515C5.98058 1.62145 5.625 2.47989 5.625 3.375V7.875C5.02826 7.875 4.45597 8.11205 4.03401 8.53401C3.61205 8.95597 3.375 9.52826 3.375 10.125V15.75C3.375 16.3467 3.61205 16.919 4.03401 17.341C4.45597 17.7629 5.02826 18 5.625 18H12.375C12.9717 18 13.544 17.7629 13.966 17.341C14.3879 16.919 14.625 16.3467 14.625 15.75V10.125C14.625 9.52826 14.3879 8.95597 13.966 8.53401C13.544 8.11205 12.9717 7.875 12.375 7.875ZM5.625 9H12.375C12.6734 9 12.9595 9.11853 13.1705 9.3295C13.3815 9.54048 13.5 9.82663 13.5 10.125V15.75C13.5 16.0484 13.3815 16.3345 13.1705 16.5455C12.9595 16.7565 12.6734 16.875 12.375 16.875H5.625C5.32663 16.875 5.04048 16.7565 4.82951 16.5455C4.61853 16.3345 4.5 16.0484 4.5 15.75V10.125C4.5 9.82663 4.61853 9.54048 4.82951 9.3295C5.04048 9.11853 5.32663 9 5.625 9Z" fill="#212529"/>
</svg>
