<svg width="14" height="7" viewBox="0 0 14 7" fill="none" xmlns="http://www.w3.org/2000/svg">
<path fill-rule="evenodd" clip-rule="evenodd" d="M6.646 0.145917C6.69244 0.0993537 6.74762 0.0624107 6.80836 0.0372043C6.86911 0.0119978 6.93423 -0.000976563 7 -0.000976562C7.06577 -0.000976563 7.13089 0.0119978 7.19163 0.0372043C7.25238 0.0624107 7.30755 0.0993537 7.354 0.145917L13.354 6.14592C13.4479 6.2398 13.5006 6.36714 13.5006 6.49992C13.5006 6.63269 13.4479 6.76003 13.354 6.85392C13.2601 6.9478 13.1328 7.00055 13 7.00055C12.8672 7.00055 12.7399 6.9478 12.646 6.85392L7 1.20692L1.354 6.85392C1.26011 6.9478 1.13277 7.00055 0.999998 7.00055C0.867223 7.00055 0.739885 6.9478 0.645998 6.85392C0.552112 6.76003 0.499367 6.63269 0.499367 6.49992C0.499367 6.36714 0.552112 6.2398 0.645998 6.14592L6.646 0.145917Z" fill="#212529"/>
</svg>
