<svg width="16" height="17" viewBox="0 0 16 17" fill="none" xmlns="http://www.w3.org/2000/svg">
<g id="calendar2-check-fill" clip-path="url(#clip0_328_147332)">
<path id="Vector" d="M3.5 0.200195C3.63261 0.200195 3.75979 0.252874 3.85355 0.346642C3.94732 0.44041 4 0.567587 4 0.700195V1.2002H12V0.700195C12 0.567587 12.0527 0.44041 12.1464 0.346642C12.2402 0.252874 12.3674 0.200195 12.5 0.200195C12.6326 0.200195 12.7598 0.252874 12.8536 0.346642C12.9473 0.44041 13 0.567587 13 0.700195V1.2002H14C14.5304 1.2002 15.0391 1.41091 15.4142 1.78598C15.7893 2.16105 16 2.66976 16 3.2002V14.2002C16 14.7306 15.7893 15.2393 15.4142 15.6144C15.0391 15.9895 14.5304 16.2002 14 16.2002H2C1.46957 16.2002 0.960859 15.9895 0.585786 15.6144C0.210714 15.2393 0 14.7306 0 14.2002V3.2002C0 2.66976 0.210714 2.16105 0.585786 1.78598C0.960859 1.41091 1.46957 1.2002 2 1.2002H3V0.700195C3 0.567587 3.05268 0.44041 3.14645 0.346642C3.24021 0.252874 3.36739 0.200195 3.5 0.200195V0.200195ZM13.454 3.2002H2.545C2.245 3.2002 2 3.4242 2 3.7002V4.7002C2 4.9762 2.244 5.2002 2.545 5.2002H13.455C13.755 5.2002 14 4.9762 14 4.7002V3.7002C14 3.4242 13.756 3.2002 13.454 3.2002ZM10.854 9.0542C10.9479 8.96031 11.0006 8.83297 11.0006 8.7002C11.0006 8.56742 10.9479 8.44008 10.854 8.3462C10.7601 8.25231 10.6328 8.19956 10.5 8.19956C10.3672 8.19956 10.2399 8.25231 10.146 8.3462L7.5 10.9932L6.354 9.8462C6.30751 9.79971 6.25232 9.76283 6.19158 9.73767C6.13084 9.71251 6.06574 9.69956 6 9.69956C5.93426 9.69956 5.86916 9.71251 5.80842 9.73767C5.74768 9.76283 5.69249 9.79971 5.646 9.8462C5.59951 9.89268 5.56264 9.94787 5.53748 10.0086C5.51232 10.0694 5.49937 10.1345 5.49937 10.2002C5.49937 10.2659 5.51232 10.331 5.53748 10.3918C5.56264 10.4525 5.59951 10.5077 5.646 10.5542L7.146 12.0542C7.19245 12.1008 7.24762 12.1377 7.30837 12.1629C7.36911 12.1881 7.43423 12.2011 7.5 12.2011C7.56577 12.2011 7.63089 12.1881 7.69163 12.1629C7.75238 12.1377 7.80755 12.1008 7.854 12.0542L10.854 9.0542Z" fill="#0D6EFD"/>
</g>
<defs>
<clipPath id="clip0_328_147332">
<rect width="16" height="16" fill="white" transform="translate(0 0.200195)"/>
</clipPath>
</defs>
</svg>
