<svg width="17" height="17" viewBox="0 0 17 17" fill="none" xmlns="http://www.w3.org/2000/svg">
<path d="M4 0.200195C4.13261 0.200195 4.25979 0.252874 4.35355 0.346642C4.44732 0.44041 4.5 0.567587 4.5 0.700195V1.2002H12.5V0.700195C12.5 0.567587 12.5527 0.44041 12.6464 0.346642C12.7402 0.252874 12.8674 0.200195 13 0.200195C13.1326 0.200195 13.2598 0.252874 13.3536 0.346642C13.4473 0.44041 13.5 0.567587 13.5 0.700195V1.2002H14.5C15.0304 1.2002 15.5391 1.41091 15.9142 1.78598C16.2893 2.16105 16.5 2.66976 16.5 3.2002V14.2002C16.5 14.7306 16.2893 15.2393 15.9142 15.6144C15.5391 15.9895 15.0304 16.2002 14.5 16.2002H2.5C1.96957 16.2002 1.46086 15.9895 1.08579 15.6144C0.710714 15.2393 0.5 14.7306 0.5 14.2002V3.2002C0.5 2.66976 0.710714 2.16105 1.08579 1.78598C1.46086 1.41091 1.96957 1.2002 2.5 1.2002H3.5V0.700195C3.5 0.567587 3.55268 0.44041 3.64645 0.346642C3.74021 0.252874 3.86739 0.200195 4 0.200195V0.200195ZM13.954 3.2002H3.045C2.745 3.2002 2.5 3.4242 2.5 3.7002V4.7002C2.5 4.9762 2.744 5.2002 3.045 5.2002H13.955C14.255 5.2002 14.5 4.9762 14.5 4.7002V3.7002C14.5 3.4242 14.256 3.2002 13.954 3.2002ZM10.5 7.2002C10.2348 7.2002 9.98043 7.30555 9.79289 7.49309C9.60536 7.68062 9.5 7.93498 9.5 8.2002C9.5 8.46541 9.60536 8.71977 9.79289 8.9073C9.98043 9.09484 10.2348 9.2002 10.5 9.2002H15.5V7.2002H10.5ZM6.5 11.2002C6.5 10.935 6.39464 10.6806 6.20711 10.4931C6.01957 10.3056 5.76522 10.2002 5.5 10.2002H1.5V12.2002H5.5C5.76522 12.2002 6.01957 12.0948 6.20711 11.9073C6.39464 11.7198 6.5 11.4654 6.5 11.2002Z" fill="#FE8902"/>
</svg>
