<svg width="16" height="17" viewBox="0 0 16 17" fill="none" xmlns="http://www.w3.org/2000/svg">
<g id="calendar2-fill" clip-path="url(#clip0_328_147224)">
<path id="Vector" d="M4 0.700195C4 0.567587 3.94732 0.44041 3.85355 0.346642C3.75979 0.252874 3.63261 0.200195 3.5 0.200195C3.36739 0.200195 3.24021 0.252874 3.14645 0.346642C3.05268 0.44041 3 0.567587 3 0.700195V1.2002H2C1.46957 1.2002 0.960859 1.41091 0.585786 1.78598C0.210714 2.16105 0 2.66976 0 3.2002L0 14.2002C0 14.7306 0.210714 15.2393 0.585786 15.6144C0.960859 15.9895 1.46957 16.2002 2 16.2002H14C14.5304 16.2002 15.0391 15.9895 15.4142 15.6144C15.7893 15.2393 16 14.7306 16 14.2002V3.2002C16 2.66976 15.7893 2.16105 15.4142 1.78598C15.0391 1.41091 14.5304 1.2002 14 1.2002H13V0.700195C13 0.567587 12.9473 0.44041 12.8536 0.346642C12.7598 0.252874 12.6326 0.200195 12.5 0.200195C12.3674 0.200195 12.2402 0.252874 12.1464 0.346642C12.0527 0.44041 12 0.567587 12 0.700195V1.2002H4V0.700195ZM2.545 3.2002H13.455C13.755 3.2002 14 3.4242 14 3.7002V4.7002C14 4.9762 13.756 5.2002 13.454 5.2002H2.545C2.245 5.2002 2 4.9762 2 4.7002V3.7002C2 3.4242 2.244 3.2002 2.545 3.2002Z" fill="#FE8902"/>
</g>
<defs>
<clipPath id="clip0_328_147224">
<rect width="16" height="16" fill="white" transform="translate(0 0.200195)"/>
</clipPath>
</defs>
</svg>
