<svg width="16" height="17" viewBox="0 0 16 17" fill="none" xmlns="http://www.w3.org/2000/svg">
<g clip-path="url(#clip0_668_158257)">
<path d="M3.5 0.200195C3.63261 0.200195 3.75979 0.252874 3.85355 0.346642C3.94732 0.44041 4 0.567587 4 0.700195V1.2002H12V0.700195C12 0.567587 12.0527 0.44041 12.1464 0.346642C12.2402 0.252874 12.3674 0.200195 12.5 0.200195C12.6326 0.200195 12.7598 0.252874 12.8536 0.346642C12.9473 0.44041 13 0.567587 13 0.700195V1.2002H14C14.5304 1.2002 15.0391 1.41091 15.4142 1.78598C15.7893 2.16105 16 2.66976 16 3.2002V14.2002C16 14.7306 15.7893 15.2393 15.4142 15.6144C15.0391 15.9895 14.5304 16.2002 14 16.2002H2C1.46957 16.2002 0.960859 15.9895 0.585786 15.6144C0.210714 15.2393 0 14.7306 0 14.2002V3.2002C0 2.66976 0.210714 2.16105 0.585786 1.78598C0.960859 1.41091 1.46957 1.2002 2 1.2002H3V0.700195C3 0.567587 3.05268 0.44041 3.14645 0.346642C3.24021 0.252874 3.36739 0.200195 3.5 0.200195V0.200195ZM13.454 3.2002H2.545C2.245 3.2002 2 3.4242 2 3.7002V4.7002C2 4.9762 2.244 5.2002 2.545 5.2002H13.455C13.755 5.2002 14 4.9762 14 4.7002V3.7002C14 3.4242 13.756 3.2002 13.454 3.2002ZM6.854 8.3462C6.80751 8.29971 6.75232 8.26283 6.69158 8.23767C6.63084 8.21251 6.56574 8.19956 6.5 8.19956C6.43426 8.19956 6.36916 8.21251 6.30842 8.23767C6.24768 8.26283 6.19249 8.29971 6.146 8.3462C6.09951 8.39268 6.06264 8.44787 6.03748 8.50861C6.01232 8.56935 5.99937 8.63445 5.99937 8.7002C5.99937 8.76594 6.01232 8.83104 6.03748 8.89178C6.06264 8.95252 6.09951 9.00771 6.146 9.0542L7.293 10.2002L6.146 11.3462C6.05211 11.4401 5.99937 11.5674 5.99937 11.7002C5.99937 11.833 6.05211 11.9603 6.146 12.0542C6.23989 12.1481 6.36722 12.2008 6.5 12.2008C6.63278 12.2008 6.76011 12.1481 6.854 12.0542L8 10.9072L9.146 12.0542C9.23989 12.1481 9.36722 12.2008 9.5 12.2008C9.63278 12.2008 9.76011 12.1481 9.854 12.0542C9.94789 11.9603 10.0006 11.833 10.0006 11.7002C10.0006 11.5674 9.94789 11.4401 9.854 11.3462L8.707 10.2002L9.854 9.0542C9.94789 8.96031 10.0006 8.83297 10.0006 8.7002C10.0006 8.56742 9.94789 8.44008 9.854 8.3462C9.76011 8.25231 9.63278 8.19956 9.5 8.19956C9.36722 8.19956 9.23989 8.25231 9.146 8.3462L8 9.4932L6.854 8.3462Z" fill="#6C757D"/>
</g>
<defs>
<clipPath id="clip0_668_158257">
<rect width="16" height="16" fill="white" transform="translate(0 0.200195)"/>
</clipPath>
</defs>
</svg>
