<svg width="16" height="16" viewBox="0 0 16 16" fill="none" xmlns="http://www.w3.org/2000/svg">
  <g clip-path="url(#clip0_1872_189749)">
  <path d="M12.136 0.325963C12.3571 0.270667 12.5878 0.266462 12.8107 0.313667C13.0337 0.360872 13.2429 0.458247 13.4226 0.598399C13.6023 0.738551 13.7476 0.917797 13.8477 1.12253C13.9477 1.32726 13.9998 1.55209 14 1.77996V2.99996H14.5C14.8978 2.99996 15.2794 3.158 15.5607 3.4393C15.842 3.72061 16 4.10214 16 4.49996V13.5C16 13.8978 15.842 14.2793 15.5607 14.5606C15.2794 14.8419 14.8978 15 14.5 15H1.5C1.10218 15 0.720644 14.8419 0.43934 14.5606C0.158035 14.2793 9.80916e-08 13.8978 9.80916e-08 13.5V4.49996C-0.000139461 4.11382 0.148642 3.74249 0.415377 3.46328C0.682113 3.18406 1.04625 3.01847 1.432 3.00096L12.136 0.325963ZM5.562 2.99996H13V1.77996C12.9998 1.7041 12.9824 1.62927 12.949 1.56114C12.9156 1.49301 12.8672 1.43337 12.8074 1.38673C12.7475 1.3401 12.6779 1.30769 12.6036 1.29196C12.5294 1.27624 12.4526 1.2776 12.379 1.29596L5.562 2.99996ZM1.5 3.99996C1.36739 3.99996 1.24021 4.05264 1.14645 4.14641C1.05268 4.24018 1 4.36735 1 4.49996V13.5C1 13.6326 1.05268 13.7597 1.14645 13.8535C1.24021 13.9473 1.36739 14 1.5 14H14.5C14.6326 14 14.7598 13.9473 14.8536 13.8535C14.9473 13.7597 15 13.6326 15 13.5V4.49996C15 4.36735 14.9473 4.24018 14.8536 4.14641C14.7598 4.05264 14.6326 3.99996 14.5 3.99996H1.5Z" fill="#212529"/>
  </g>
  <defs>
  <clipPath id="clip0_1872_189749">
  <rect width="16" height="16" fill="white"/>
  </clipPath>
  </defs>
</svg>
