<svg width="12" height="12" viewBox="0 0 12 12" fill="none" xmlns="http://www.w3.org/2000/svg">
<g id="caret-down-fill">
<path id="Vector" d="M5.3156 8.05865L2.01835 4.28978C1.62923 3.84634 1.94548 3.1499 2.53604 3.1499H9.13054C9.26271 3.14979 9.39211 3.18778 9.50324 3.25931C9.61438 3.33085 9.70254 3.4329 9.75716 3.55325C9.81179 3.67361 9.83056 3.80715 9.81124 3.9379C9.79192 4.06865 9.73533 4.19106 9.64823 4.29046L6.35098 8.05797C6.28645 8.13181 6.20687 8.19099 6.11758 8.23154C6.02829 8.2721 5.93136 8.29308 5.83329 8.29308C5.73522 8.29308 5.63829 8.2721 5.549 8.23154C5.45971 8.19099 5.38013 8.13181 5.3156 8.05797V8.05865Z" fill="#ADB5BD"/>
</g>
</svg>
