<svg width="12" height="12" viewBox="0 0 12 12" fill="none" xmlns="http://www.w3.org/2000/svg">
<g id="caret-up-fill">
<path id="Vector" d="M5.3156 3.74126L2.01835 7.50945C1.62923 7.95426 1.94548 8.65001 2.53604 8.65001H9.13054C9.26271 8.65012 9.39211 8.61214 9.50324 8.5406C9.61438 8.46906 9.70254 8.36701 9.75716 8.24666C9.81179 8.12631 9.83056 7.99276 9.81124 7.86201C9.79192 7.73126 9.73533 7.60886 9.64823 7.50945L6.35098 3.74195C6.28645 3.6681 6.20687 3.60892 6.11758 3.56837C6.02829 3.52782 5.93136 3.50684 5.83329 3.50684C5.73522 3.50684 5.63829 3.52782 5.549 3.56837C5.45971 3.60892 5.38013 3.6681 5.3156 3.74195V3.74126Z" fill="#ADB5BD"/>
</g>
</svg>
