<svg xmlns="http://www.w3.org/2000/svg" width="16" height="16" viewBox="0 0 16 16" fill="none">
    <g clip-path="url(#clip0_3144_49904)">
    <path d="M0 1.99927C0 1.46883 0.210714 0.960127 0.585786 0.585054C0.960859 0.209981 1.46957 -0.000732422 2 -0.000732422H14C14.5304 -0.000732422 15.0391 0.209981 15.4142 0.585054C15.7893 0.960127 16 1.46883 16 1.99927V9.99927C16 10.5297 15.7893 11.0384 15.4142 11.4135C15.0391 11.7886 14.5304 11.9993 14 11.9993H4.414C4.14881 11.9993 3.89449 12.1047 3.707 12.2923L0.854 15.1453C0.784131 15.2153 0.695051 15.2631 0.598036 15.2825C0.501021 15.3019 0.400432 15.292 0.308999 15.2542C0.217567 15.2164 0.139402 15.1524 0.0843973 15.0701C0.0293926 14.9879 2.10149e-05 14.8912 0 14.7923V1.99927ZM3.5 2.99927C3.36739 2.99927 3.24021 3.05195 3.14645 3.14571C3.05268 3.23948 3 3.36666 3 3.49927C3 3.63188 3.05268 3.75905 3.14645 3.85282C3.24021 3.94659 3.36739 3.99927 3.5 3.99927H12.5C12.6326 3.99927 12.7598 3.94659 12.8536 3.85282C12.9473 3.75905 13 3.63188 13 3.49927C13 3.36666 12.9473 3.23948 12.8536 3.14571C12.7598 3.05195 12.6326 2.99927 12.5 2.99927H3.5ZM3.5 5.49927C3.36739 5.49927 3.24021 5.55195 3.14645 5.64571C3.05268 5.73948 3 5.86666 3 5.99927C3 6.13188 3.05268 6.25905 3.14645 6.35282C3.24021 6.44659 3.36739 6.49927 3.5 6.49927H12.5C12.6326 6.49927 12.7598 6.44659 12.8536 6.35282C12.9473 6.25905 13 6.13188 13 5.99927C13 5.86666 12.9473 5.73948 12.8536 5.64571C12.7598 5.55195 12.6326 5.49927 12.5 5.49927H3.5ZM3.5 7.99927C3.36739 7.99927 3.24021 8.05195 3.14645 8.14571C3.05268 8.23948 3 8.36666 3 8.49927C3 8.63188 3.05268 8.75905 3.14645 8.85282C3.24021 8.94659 3.36739 8.99927 3.5 8.99927H8.5C8.63261 8.99927 8.75979 8.94659 8.85355 8.85282C8.94732 8.75905 9 8.63188 9 8.49927C9 8.36666 8.94732 8.23948 8.85355 8.14571C8.75979 8.05195 8.63261 7.99927 8.5 7.99927H3.5Z" fill="#FE8902"/>
    </g>
    <defs>
    <clipPath id="clip0_3144_49904">
    <rect width="16" height="16" fill="white"/>
    </clipPath>
    </defs>
</svg>
