<svg xmlns="http://www.w3.org/2000/svg" width="18" height="18" viewBox="0 0 18 18" fill="none">
    <path d="M5.06445 3.37598C5.06445 2.63006 5.36077 1.91468 5.88822 1.38724C6.41566 0.859793 7.13103 0.563477 7.87695 0.563477C8.62287 0.563477 9.33824 0.859793 9.86569 1.38724C10.3931 1.91468 10.6895 2.63006 10.6895 3.37598V13.501C10.6895 13.9485 10.5117 14.3778 10.1952 14.6942C9.87873 15.0107 9.44951 15.1885 9.00195 15.1885C8.5544 15.1885 8.12518 15.0107 7.80871 14.6942C7.49224 14.3778 7.31445 13.9485 7.31445 13.501V5.62598C7.31445 5.47679 7.37372 5.33372 7.47921 5.22823C7.58469 5.12274 7.72777 5.06348 7.87695 5.06348C8.02614 5.06348 8.16921 5.12274 8.2747 5.22823C8.38019 5.33372 8.43945 5.47679 8.43945 5.62598V13.501C8.43945 13.6502 8.49872 13.7932 8.60421 13.8987C8.70969 14.0042 8.85277 14.0635 9.00195 14.0635C9.15114 14.0635 9.29421 14.0042 9.3997 13.8987C9.50519 13.7932 9.56445 13.6502 9.56445 13.501V3.37598C9.56445 3.15437 9.5208 2.93494 9.436 2.7302C9.3512 2.52546 9.22689 2.33943 9.0702 2.18273C8.9135 2.02603 8.72747 1.90173 8.52273 1.81693C8.31799 1.73213 8.09856 1.68848 7.87695 1.68848C7.65535 1.68848 7.43591 1.73213 7.23117 1.81693C7.02644 1.90173 6.84041 2.02603 6.68371 2.18273C6.52701 2.33943 6.40271 2.52546 6.31791 2.7302C6.2331 2.93494 6.18945 3.15437 6.18945 3.37598V13.501C6.18945 14.2469 6.48577 14.9623 7.01322 15.4897C7.54066 16.0172 8.25603 16.3135 9.00195 16.3135C9.74787 16.3135 10.4632 16.0172 10.9907 15.4897C11.5181 14.9623 11.8145 14.2469 11.8145 13.501V5.62598C11.8145 5.47679 11.8737 5.33372 11.9792 5.22823C12.0847 5.12274 12.2278 5.06348 12.377 5.06348C12.5261 5.06348 12.6692 5.12274 12.7747 5.22823C12.8802 5.33372 12.9395 5.47679 12.9395 5.62598V13.501C12.9395 14.5453 12.5246 15.5468 11.7862 16.2852C11.0478 17.0236 10.0462 17.4385 9.00195 17.4385C7.95766 17.4385 6.95614 17.0236 6.21772 16.2852C5.4793 15.5468 5.06445 14.5453 5.06445 13.501V3.37598Z" fill="#6C757D"/>
</svg>
