<svg width="16" height="17" viewBox="0 0 16 17" fill="none" xmlns="http://www.w3.org/2000/svg">
  <g clip-path="url(#clip0_1289_189950)">
  <path d="M14 1.5C14.2652 1.5 14.5196 1.60536 14.7071 1.79289C14.8946 1.98043 15 2.23478 15 2.5V10.5C15 10.7652 14.8946 11.0196 14.7071 11.2071C14.5196 11.3946 14.2652 11.5 14 11.5H4.414C3.88361 11.5001 3.37499 11.7109 3 12.086L1 14.086V2.5C1 2.23478 1.10536 1.98043 1.29289 1.79289C1.48043 1.60536 1.73478 1.5 2 1.5H14ZM2 0.5C1.46957 0.5 0.960859 0.710714 0.585786 1.08579C0.210714 1.46086 0 1.96957 0 2.5V15.293C2.10149e-05 15.3919 0.0293926 15.4886 0.0843973 15.5709C0.139402 15.6531 0.217567 15.7172 0.308999 15.755C0.400432 15.7928 0.501021 15.8026 0.598036 15.7832C0.695051 15.7638 0.784131 15.716 0.854 15.646L3.707 12.793C3.89449 12.6055 4.14881 12.5001 4.414 12.5H14C14.5304 12.5 15.0391 12.2893 15.4142 11.9142C15.7893 11.5391 16 11.0304 16 10.5V2.5C16 1.96957 15.7893 1.46086 15.4142 1.08579C15.0391 0.710714 14.5304 0.5 14 0.5H2Z" fill="#212529"/>
  <path d="M3 4C3 3.86739 3.05268 3.74021 3.14645 3.64645C3.24021 3.55268 3.36739 3.5 3.5 3.5H12.5C12.6326 3.5 12.7598 3.55268 12.8536 3.64645C12.9473 3.74021 13 3.86739 13 4C13 4.13261 12.9473 4.25979 12.8536 4.35355C12.7598 4.44732 12.6326 4.5 12.5 4.5H3.5C3.36739 4.5 3.24021 4.44732 3.14645 4.35355C3.05268 4.25979 3 4.13261 3 4ZM3 6.5C3 6.36739 3.05268 6.24021 3.14645 6.14645C3.24021 6.05268 3.36739 6 3.5 6H12.5C12.6326 6 12.7598 6.05268 12.8536 6.14645C12.9473 6.24021 13 6.36739 13 6.5C13 6.63261 12.9473 6.75979 12.8536 6.85355C12.7598 6.94732 12.6326 7 12.5 7H3.5C3.36739 7 3.24021 6.94732 3.14645 6.85355C3.05268 6.75979 3 6.63261 3 6.5ZM3 9C3 8.86739 3.05268 8.74021 3.14645 8.64645C3.24021 8.55268 3.36739 8.5 3.5 8.5H8.5C8.63261 8.5 8.75979 8.55268 8.85355 8.64645C8.94732 8.74021 9 8.86739 9 9C9 9.13261 8.94732 9.25979 8.85355 9.35355C8.75979 9.44732 8.63261 9.5 8.5 9.5H3.5C3.36739 9.5 3.24021 9.44732 3.14645 9.35355C3.05268 9.25979 3 9.13261 3 9Z" fill="#212529"/>
  </g>
  <defs>
  <clipPath id="clip0_1289_189950">
  <rect width="16" height="16" fill="white" transform="translate(0 0.5)"/>
  </clipPath>
  </defs>
</svg>
