<svg width="20" height="20" viewBox="0 0 20 20" fill="none" xmlns="http://www.w3.org/2000/svg">
<g clip-path="url(#clip0_206_137361)">
<rect width="20" height="20" fill="white" fill-opacity="0.01"/>
<path d="M10.0024 4.37598C10.0024 4.21022 9.93659 4.05125 9.81938 3.93403C9.70217 3.81682 9.5432 3.75098 9.37744 3.75098C9.21168 3.75098 9.05271 3.81682 8.9355 3.93403C8.81829 4.05125 8.75244 4.21022 8.75244 4.37598V11.251C8.75248 11.3611 8.78163 11.4693 8.83695 11.5646C8.89227 11.6599 8.97178 11.7388 9.06744 11.7935L13.4424 14.2935C13.586 14.3711 13.7542 14.3894 13.9112 14.3446C14.0681 14.2998 14.2013 14.1954 14.2823 14.0537C14.3632 13.912 14.3856 13.7443 14.3445 13.5863C14.3034 13.4284 14.2022 13.2928 14.0624 13.2085L10.0024 10.8885V4.37598Z" fill="#6C757D"/>
<path d="M10.0024 20.001C12.6546 20.001 15.1981 18.9474 17.0735 17.072C18.9489 15.1967 20.0024 12.6531 20.0024 10.001C20.0024 7.34881 18.9489 4.80527 17.0735 2.92991C15.1981 1.05455 12.6546 0.000976563 10.0024 0.000976562C7.35028 0.000976563 4.80674 1.05455 2.93137 2.92991C1.05601 4.80527 0.00244141 7.34881 0.00244141 10.001C0.00244141 12.6531 1.05601 15.1967 2.93137 17.072C4.80674 18.9474 7.35028 20.001 10.0024 20.001ZM18.7524 10.001C18.7524 12.3216 17.8306 14.5472 16.1896 16.1882C14.5487 17.8291 12.3231 18.751 10.0024 18.751C7.6818 18.751 5.4562 17.8291 3.81526 16.1882C2.17431 14.5472 1.25244 12.3216 1.25244 10.001C1.25244 7.68033 2.17431 5.45474 3.81526 3.81379C5.4562 2.17285 7.6818 1.25098 10.0024 1.25098C12.3231 1.25098 14.5487 2.17285 16.1896 3.81379C17.8306 5.45474 18.7524 7.68033 18.7524 10.001Z" fill="#6C757D"/>
</g>
<defs>
<clipPath id="clip0_206_137361">
<rect width="20" height="20" fill="white"/>
</clipPath>
</defs>
</svg>
