<svg width="20" height="20" viewBox="0 0 20 20" fill="none" xmlns="http://www.w3.org/2000/svg">
<g clip-path="url(#clip0_837_9753)">
<rect width="20" height="20" fill="white" fill-opacity="0.01"/>
<path d="M10.0024 1.25098C10.6655 1.25098 11.3014 1.51437 11.7702 1.98321C12.239 2.45205 12.5024 3.08794 12.5024 3.75098V8.75098H7.50244V3.75098C7.50244 3.08794 7.76583 2.45205 8.23467 1.98321C8.70352 1.51437 9.3394 1.25098 10.0024 1.25098ZM13.7524 8.75098V3.75098C13.7524 2.75641 13.3574 1.80259 12.6541 1.09933C11.9508 0.396065 10.997 0.000976563 10.0024 0.000976562C9.00788 0.000976563 8.05405 0.396065 7.35079 1.09933C6.64753 1.80259 6.25244 2.75641 6.25244 3.75098V8.75098C5.5894 8.75098 4.95352 9.01437 4.48467 9.48321C4.01583 9.95205 3.75244 10.5879 3.75244 11.251V17.501C3.75244 18.164 4.01583 18.7999 4.48467 19.2687C4.95352 19.7376 5.5894 20.001 6.25244 20.001H13.7524C14.4155 20.001 15.0514 19.7376 15.5202 19.2687C15.989 18.7999 16.2524 18.164 16.2524 17.501V11.251C16.2524 10.5879 15.989 9.95205 15.5202 9.48321C15.0514 9.01437 14.4155 8.75098 13.7524 8.75098ZM6.25244 10.001H13.7524C14.084 10.001 14.4019 10.1327 14.6363 10.3671C14.8707 10.6015 15.0024 10.9195 15.0024 11.251V17.501C15.0024 17.8325 14.8707 18.1504 14.6363 18.3849C14.4019 18.6193 14.084 18.751 13.7524 18.751H6.25244C5.92092 18.751 5.60298 18.6193 5.36856 18.3849C5.13414 18.1504 5.00244 17.8325 5.00244 17.501V11.251C5.00244 10.9195 5.13414 10.6015 5.36856 10.3671C5.60298 10.1327 5.92092 10.001 6.25244 10.001Z" fill="black" fill-opacity="0.55"/>
</g>
<defs>
<clipPath id="clip0_837_9753">
<rect width="20" height="20" fill="white"/>
</clipPath>
</defs>
</svg>
