<svg width="14" height="20" viewBox="0 0 14 20" fill="none" xmlns="http://www.w3.org/2000/svg">
<g clip-path="url(#clip0_317_33312)">
<path d="M7.00195 1.25C7.66499 1.25 8.30088 1.51339 8.76972 1.98223C9.23856 2.45107 9.50195 3.08696 9.50195 3.75V8.75H4.50195V3.75C4.50195 3.08696 4.76534 2.45107 5.23418 1.98223C5.70303 1.51339 6.33891 1.25 7.00195 1.25ZM10.7519 8.75V3.75C10.7519 2.75543 10.3569 1.80161 9.6536 1.09835C8.95034 0.395088 7.99651 1e-09 7.00195 0C6.00739 1e-09 5.05356 0.395088 4.3503 1.09835C3.64704 1.80161 3.25195 2.75543 3.25195 3.75V8.75C2.58891 8.75 1.95303 9.01339 1.48418 9.48223C1.01534 9.95107 0.751953 10.5869 0.751953 11.25V17.5C0.751953 18.163 1.01534 18.7989 1.48418 19.2677C1.95303 19.7366 2.58891 20 3.25195 20H10.7519C11.415 20 12.0509 19.7366 12.5197 19.2677C12.9885 18.7989 13.2519 18.163 13.2519 17.5V11.25C13.2519 10.5869 12.9885 9.95107 12.5197 9.48223C12.0509 9.01339 11.415 8.75 10.7519 8.75ZM3.25195 10H10.7519C11.0835 10 11.4014 10.1317 11.6358 10.3661C11.8702 10.6005 12.0019 10.9185 12.0019 11.25V17.5C12.0019 17.8315 11.8702 18.1494 11.6358 18.3839C11.4014 18.6183 11.0835 18.75 10.7519 18.75H3.25195C2.92043 18.75 2.60249 18.6183 2.36807 18.3839C2.13365 18.1494 2.00195 17.8315 2.00195 17.5V11.25C2.00195 10.9185 2.13365 10.6005 2.36807 10.3661C2.60249 10.1317 2.92043 10 3.25195 10Z" fill="white"/>
</g>
<defs>
<clipPath id="clip0_317_33312">
<rect width="14" height="20" fill="white"/>
</clipPath>
</defs>
</svg>
