<svg width="32" height="32" viewBox="0 0 32 32" fill="none" xmlns="http://www.w3.org/2000/svg">
  <g opacity="0.5">
  <rect width="32" height="32" fill="white" fill-opacity="0.01"/>
  <g clip-path="url(#clip0_579_165005)">
  <rect width="16" height="16" transform="translate(8 8)" fill="white" fill-opacity="0.01"/>
  <g clip-path="url(#clip1_579_165005)">
  <path d="M8.29254 8.2921C8.48007 8.10463 8.73438 7.99932 8.99954 7.99932C9.26471 7.99932 9.51901 8.10463 9.70654 8.2921L15.9995 14.5851L22.2925 8.2921C22.3848 8.19659 22.4951 8.12041 22.6171 8.068C22.7391 8.01559 22.8704 7.98801 23.0031 7.98685C23.1359 7.9857 23.2676 8.011 23.3905 8.06128C23.5134 8.11156 23.625 8.18582 23.7189 8.27971C23.8128 8.3736 23.8871 8.48525 23.9374 8.60815C23.9876 8.73105 24.0129 8.86273 24.0118 8.99551C24.0106 9.12829 23.9831 9.25951 23.9306 9.38151C23.8782 9.50351 23.8021 9.61386 23.7065 9.7061L17.4135 15.9991L23.7065 22.2921C23.8887 22.4807 23.9895 22.7333 23.9872 22.9955C23.9849 23.2577 23.8798 23.5085 23.6944 23.6939C23.509 23.8793 23.2581 23.9845 22.9959 23.9868C22.7337 23.9891 22.4811 23.8883 22.2925 23.7061L15.9995 17.4131L9.70654 23.7061C9.51794 23.8883 9.26534 23.9891 9.00314 23.9868C8.74094 23.9845 8.49013 23.8793 8.30472 23.6939C8.11932 23.5085 8.01415 23.2577 8.01187 22.9955C8.00959 22.7333 8.11038 22.4807 8.29254 22.2921L14.5855 15.9991L8.29254 9.7061C8.10507 9.51858 7.99976 9.26427 7.99976 8.9991C7.99976 8.73394 8.10507 8.47963 8.29254 8.2921Z" fill="black"/>
  </g>
  </g>
  </g>
  <defs>
  <clipPath id="clip0_579_165005">
  <rect width="16" height="16" fill="white" transform="translate(8 8)"/>
  </clipPath>
  <clipPath id="clip1_579_165005">
  <rect width="16" height="16" fill="white" transform="translate(8 8)"/>
  </clipPath>
  </defs>
</svg>
