<svg width="18" height="18" viewBox="0 0 18 18" fill="none" xmlns="http://www.w3.org/2000/svg">
<rect width="18" height="18" fill="white" fill-opacity="0.01"/>
<g clip-path="url(#clip0_135_135185)">
<rect width="16" height="16" transform="translate(1 1)" fill="white" fill-opacity="0.01"/>
<g clip-path="url(#clip1_135_135185)">
<path d="M14.3586 12.2372C16.0596 10.7192 16.9996 8.99918 16.9996 8.99918C16.9996 8.99918 13.9996 3.49918 8.99965 3.49918C8.03924 3.50249 7.0897 3.7026 6.20965 4.08718L6.97965 4.85818C7.62708 4.62233 8.3106 4.50086 8.99965 4.49918C11.1196 4.49918 12.8786 5.66718 14.1676 6.95618C14.788 7.57987 15.3441 8.26431 15.8276 8.99918C15.7696 9.08618 15.7056 9.18218 15.6326 9.28718C15.2976 9.76718 14.8026 10.4072 14.1676 11.0422C14.0026 11.2072 13.8306 11.3702 13.6506 11.5282L14.3586 12.2372Z" fill="#6C757D"/>
<path d="M12.2966 10.1752C12.5198 9.55102 12.5611 8.87633 12.4158 8.2296C12.2705 7.58287 11.9445 6.99071 11.4758 6.522C11.0071 6.05329 10.415 5.72732 9.76823 5.58201C9.1215 5.4367 8.44681 5.47803 7.82265 5.70118L8.64565 6.52418C9.02996 6.46917 9.4218 6.50442 9.79012 6.62714C10.1584 6.74986 10.4931 6.95667 10.7676 7.23119C11.0422 7.50571 11.249 7.84039 11.3717 8.20871C11.4944 8.57703 11.5297 8.96887 11.4746 9.35318L12.2966 10.1752ZM9.35365 11.4742L10.1756 12.2962C9.55149 12.5193 8.8768 12.5607 8.23007 12.4153C7.58334 12.27 6.99117 11.9441 6.52247 11.4754C6.05376 11.0067 5.72779 10.4145 5.58248 9.76776C5.43717 9.12103 5.47849 8.44634 5.70165 7.82218L6.52465 8.64518C6.46964 9.02949 6.50489 9.42133 6.62761 9.78965C6.75033 10.158 6.95714 10.4927 7.23166 10.7672C7.50618 11.0417 7.84086 11.2485 8.20918 11.3712C8.5775 11.4939 8.96934 11.5292 9.35365 11.4742Z" fill="#6C757D"/>
<path d="M4.34965 6.46918C4.16965 6.62918 3.99665 6.79118 3.83165 6.95618C3.2113 7.57987 2.65517 8.26431 2.17165 8.99918L2.36665 9.28718C2.70165 9.76718 3.19665 10.4072 3.83165 11.0422C5.12065 12.3312 6.88065 13.4992 8.99965 13.4992C9.71565 13.4992 10.3896 13.3662 11.0196 13.1392L11.7896 13.9112C10.9096 14.2957 9.96005 14.4958 8.99965 14.4992C3.99965 14.4992 0.999649 8.99918 0.999649 8.99918C0.999649 8.99918 1.93865 7.27818 3.64065 5.76118L4.34865 6.47018L4.34965 6.46918ZM14.6456 15.3532L2.64565 3.35318L3.35365 2.64518L15.3536 14.6452L14.6456 15.3532Z" fill="#6C757D"/>
</g>
</g>
<defs>
<clipPath id="clip0_135_135185">
<rect width="16" height="16" fill="white" transform="translate(1 1)"/>
</clipPath>
<clipPath id="clip1_135_135185">
<rect width="16" height="16" fill="white" transform="translate(1 1)"/>
</clipPath>
</defs>
</svg>
