<svg width="10" height="10" viewBox="0 0 10 10" fill="none" xmlns="http://www.w3.org/2000/svg">
<g clip-path="url(#clip0_668_166600)">
<rect width="10" height="10" fill="white" fill-opacity="0.01"/>
<g clip-path="url(#clip1_668_166600)">
<path d="M0.182992 0.182748C0.300196 0.0655791 0.459139 -0.000243044 0.624867 -0.000243044C0.790594 -0.000243044 0.949537 0.0655791 1.06674 0.182748L4.99987 4.11587L8.93299 0.182748C8.99065 0.123055 9.05961 0.0754407 9.13586 0.0426851C9.21212 0.00992949 9.29413 -0.00731191 9.37712 -0.00803304C9.4601 -0.00875418 9.5424 0.00705939 9.61921 0.0384849C9.69602 0.0699105 9.76581 0.116319 9.82449 0.175002C9.88317 0.233685 9.92958 0.303467 9.96101 0.380277C9.99243 0.457087 10.0082 0.539387 10.0075 0.622374C10.0068 0.705361 9.98956 0.787374 9.95681 0.863626C9.92405 0.939879 9.87644 1.00884 9.81674 1.0665L5.88362 4.99962L9.81674 8.93275C9.93059 9.05062 9.99359 9.2085 9.99216 9.37237C9.99074 9.53625 9.92501 9.693 9.80913 9.80888C9.69325 9.92476 9.53649 9.9905 9.37262 9.99192C9.20874 9.99334 9.05087 9.93035 8.93299 9.8165L4.99987 5.88337L1.06674 9.8165C0.948865 9.93035 0.790989 9.99334 0.627116 9.99192C0.463243 9.9905 0.306485 9.92476 0.190605 9.80888C0.0747249 9.693 0.00899427 9.53625 0.00757026 9.37237C0.00614625 9.2085 0.0691428 9.05062 0.182992 8.93275L4.11612 4.99962L0.182992 1.0665C0.0658221 0.949294 0 0.790351 0 0.624623C0 0.458896 0.0658221 0.299953 0.182992 0.182748Z" fill="#DC3545"/>
</g>
</g>
<defs>
<clipPath id="clip0_668_166600">
<rect width="10" height="10" fill="white"/>
</clipPath>
<clipPath id="clip1_668_166600">
<rect width="10" height="10" fill="white"/>
</clipPath>
</defs>
</svg>
