<svg width="15" height="17" viewBox="0 0 15 17" fill="none" xmlns="http://www.w3.org/2000/svg">
<path fill-rule="evenodd" clip-rule="evenodd" d="M14.763 0.574882C14.8354 0.619677 14.8952 0.682228 14.9367 0.756606C14.9782 0.830983 15 0.914722 15 0.999882V15.9999C15 16.1325 14.9473 16.2597 14.8536 16.3534C14.7598 16.4472 14.6326 16.4999 14.5 16.4999H11.5C11.3674 16.4999 11.2402 16.4472 11.1464 16.3534C11.0527 16.2597 11 16.1325 11 15.9999V14.4999H10V15.9999C10 16.1325 9.94732 16.2597 9.85355 16.3534C9.75979 16.4472 9.63261 16.4999 9.5 16.4999H0.5C0.367392 16.4999 0.240215 16.4472 0.146447 16.3534C0.0526784 16.2597 0 16.1325 0 15.9999V10.4999C7.96467e-05 10.395 0.0331481 10.2928 0.0945249 10.2077C0.155902 10.1226 0.242478 10.059 0.342 10.0259L6 8.13988V4.99988C6 4.9071 6.02582 4.81616 6.07456 4.73721C6.12331 4.65827 6.19305 4.59445 6.276 4.55288L14.276 0.552882C14.3523 0.514688 14.4371 0.496659 14.5224 0.500509C14.6076 0.50436 14.6904 0.529964 14.763 0.574882ZM6 9.19388L1 10.8599V15.4999H6V9.19388ZM7 15.4999H9V13.9999C9 13.8673 9.05268 13.7401 9.14645 13.6463C9.24021 13.5526 9.36739 13.4999 9.5 13.4999H11.5C11.6326 13.4999 11.7598 13.5526 11.8536 13.6463C11.9473 13.7401 12 13.8673 12 13.9999V15.4999H14V1.80888L7 5.30888V15.4999Z" fill="#212529"/>
<path d="M2 11.4999H3V12.4999H2V11.4999ZM4 11.4999H5V12.4999H4V11.4999ZM2 13.4999H3V14.4999H2V13.4999ZM4 13.4999H5V14.4999H4V13.4999ZM8 9.49988H9V10.4999H8V9.49988ZM10 9.49988H11V10.4999H10V9.49988ZM8 11.4999H9V12.4999H8V11.4999ZM10 11.4999H11V12.4999H10V11.4999ZM12 9.49988H13V10.4999H12V9.49988ZM12 11.4999H13V12.4999H12V11.4999ZM8 7.49988H9V8.49988H8V7.49988ZM10 7.49988H11V8.49988H10V7.49988ZM12 7.49988H13V8.49988H12V7.49988ZM8 5.49988H9V6.49988H8V5.49988ZM10 5.49988H11V6.49988H10V5.49988ZM12 5.49988H13V6.49988H12V5.49988ZM12 3.49988H13V4.49988H12V3.49988Z" fill="#212529"/>
</svg>
