<svg width="16" height="17" viewBox="0 0 16 17" fill="none" xmlns="http://www.w3.org/2000/svg">
<g id="layout-wtf" clip-path="url(#clip0_1237_182698)">
<path id="Vector" d="M5 1.5V9.5H1V1.5H5ZM1 0.5C0.734784 0.5 0.48043 0.605357 0.292893 0.792893C0.105357 0.98043 0 1.23478 0 1.5L0 9.5C0 9.76522 0.105357 10.0196 0.292893 10.2071C0.48043 10.3946 0.734784 10.5 1 10.5H5C5.26522 10.5 5.51957 10.3946 5.70711 10.2071C5.89464 10.0196 6 9.76522 6 9.5V1.5C6 1.23478 5.89464 0.98043 5.70711 0.792893C5.51957 0.605357 5.26522 0.5 5 0.5H1ZM14 2.5V7.5H9V2.5H14ZM9 1.5C8.73478 1.5 8.48043 1.60536 8.29289 1.79289C8.10536 1.98043 8 2.23478 8 2.5V7.5C8 7.76522 8.10536 8.01957 8.29289 8.20711C8.48043 8.39464 8.73478 8.5 9 8.5H14C14.2652 8.5 14.5196 8.39464 14.7071 8.20711C14.8946 8.01957 15 7.76522 15 7.5V2.5C15 2.23478 14.8946 1.98043 14.7071 1.79289C14.5196 1.60536 14.2652 1.5 14 1.5H9ZM5 13.5V15.5H3V13.5H5ZM3 12.5C2.73478 12.5 2.48043 12.6054 2.29289 12.7929C2.10536 12.9804 2 13.2348 2 13.5V15.5C2 15.7652 2.10536 16.0196 2.29289 16.2071C2.48043 16.3946 2.73478 16.5 3 16.5H5C5.26522 16.5 5.51957 16.3946 5.70711 16.2071C5.89464 16.0196 6 15.7652 6 15.5V13.5C6 13.2348 5.89464 12.9804 5.70711 12.7929C5.51957 12.6054 5.26522 12.5 5 12.5H3ZM15 11.5V13.5H9V11.5H15ZM9 10.5C8.73478 10.5 8.48043 10.6054 8.29289 10.7929C8.10536 10.9804 8 11.2348 8 11.5V13.5C8 13.7652 8.10536 14.0196 8.29289 14.2071C8.48043 14.3946 8.73478 14.5 9 14.5H15C15.2652 14.5 15.5196 14.3946 15.7071 14.2071C15.8946 14.0196 16 13.7652 16 13.5V11.5C16 11.2348 15.8946 10.9804 15.7071 10.7929C15.5196 10.6054 15.2652 10.5 15 10.5H9Z" fill="#212529"/>
</g>
<defs>
<clipPath id="clip0_1237_182698">
<rect width="16" height="16" fill="white" transform="translate(0 0.5)"/>
</clipPath>
</defs>
</svg>
