<svg width="16" height="17" viewBox="0 0 16 17" fill="none" xmlns="http://www.w3.org/2000/svg">
<g clip-path="url(#clip0_801_25574)">
<rect width="16" height="16" transform="translate(0 0.899902)" fill="white" fill-opacity="0.01"/>
<path d="M15.5016 2.83932C15.5951 2.93304 15.6475 3.05998 15.6475 3.19232C15.6475 3.32466 15.5951 3.4516 15.5016 3.54532L14.4586 4.58932L12.4586 2.58932L13.5016 1.54532C13.5954 1.45158 13.7226 1.39893 13.8551 1.39893C13.9877 1.39893 14.1149 1.45158 14.2086 1.54532L15.5016 2.83832V2.83932ZM13.7516 5.29532L11.7516 3.29532L4.93863 10.1093C4.8836 10.1643 4.84216 10.2315 4.81763 10.3053L4.01263 12.7193C3.99803 12.7633 3.99596 12.8105 4.00665 12.8556C4.01733 12.9008 4.04036 12.942 4.07314 12.9748C4.10593 13.0076 4.14719 13.0306 4.19231 13.0413C4.23742 13.052 4.28463 13.0499 4.32863 13.0353L6.74263 12.2303C6.8164 12.2061 6.8835 12.165 6.93863 12.1103L13.7516 5.29532Z" fill="#0D6EFD"/>
<path fill-rule="evenodd" clip-rule="evenodd" d="M0.999634 14.3993C0.999634 14.7971 1.15767 15.1787 1.43897 15.46C1.72028 15.7413 2.10181 15.8993 2.49963 15.8993H13.4996C13.8975 15.8993 14.279 15.7413 14.5603 15.46C14.8416 15.1787 14.9996 14.7971 14.9996 14.3993V8.39932C14.9996 8.26671 14.947 8.13953 14.8532 8.04577C14.7594 7.952 14.6322 7.89932 14.4996 7.89932C14.367 7.89932 14.2398 7.952 14.1461 8.04577C14.0523 8.13953 13.9996 8.26671 13.9996 8.39932V14.3993C13.9996 14.5319 13.947 14.6591 13.8532 14.7529C13.7594 14.8466 13.6322 14.8993 13.4996 14.8993H2.49963C2.36703 14.8993 2.23985 14.8466 2.14608 14.7529C2.05231 14.6591 1.99963 14.5319 1.99963 14.3993V3.39932C1.99963 3.26671 2.05231 3.13953 2.14608 3.04577C2.23985 2.952 2.36703 2.89932 2.49963 2.89932H8.99963C9.13224 2.89932 9.25942 2.84664 9.35319 2.75287C9.44696 2.6591 9.49963 2.53193 9.49963 2.39932C9.49963 2.26671 9.44696 2.13953 9.35319 2.04577C9.25942 1.952 9.13224 1.89932 8.99963 1.89932H2.49963C2.10181 1.89932 1.72028 2.05735 1.43897 2.33866C1.15767 2.61996 0.999634 3.00149 0.999634 3.39932V14.3993Z" fill="#0D6EFD"/>
</g>
<defs>
<clipPath id="clip0_801_25574">
<rect width="16" height="16" fill="white" transform="translate(0 0.899902)"/>
</clipPath>
</defs>
</svg>
