<svg width="16" height="17" viewBox="0 0 16 17" fill="none" xmlns="http://www.w3.org/2000/svg">
<path d="M15.5017 2.43844C15.5952 2.53216 15.6476 2.6591 15.6476 2.79144C15.6476 2.92377 15.5952 3.05071 15.5017 3.14444L14.4587 4.18844L12.4587 2.18844L13.5017 1.14444C13.5955 1.0507 13.7227 0.998047 13.8552 0.998047C13.9878 0.998047 14.115 1.0507 14.2087 1.14444L15.5017 2.43844ZM13.7517 4.89444L11.7517 2.89444L4.93871 9.70844C4.88368 9.76346 4.84224 9.83058 4.81771 9.90444L4.01271 12.3184C3.99811 12.3624 3.99604 12.4096 4.00673 12.4547C4.01741 12.4999 4.04044 12.5411 4.07322 12.5739C4.10601 12.6067 4.14727 12.6297 4.19239 12.6404C4.2375 12.6511 4.28471 12.649 4.32871 12.6344L6.74271 11.8294C6.81648 11.8052 6.88358 11.7641 6.93871 11.7094L13.7517 4.89444Z" fill="white"/>
<path fill-rule="evenodd" clip-rule="evenodd" d="M1 14C1 14.3978 1.15804 14.7794 1.43934 15.0607C1.72065 15.342 2.10218 15.5 2.5 15.5H13.5C13.8979 15.5 14.2794 15.342 14.5607 15.0607C14.842 14.7794 15 14.3978 15 14V8C15 7.86739 14.9474 7.74021 14.8536 7.64644C14.7598 7.55268 14.6326 7.5 14.5 7.5C14.3674 7.5 14.2402 7.55268 14.1465 7.64644C14.0527 7.74021 14 7.86739 14 8V14C14 14.1326 13.9474 14.2598 13.8536 14.3536C13.7598 14.4473 13.6326 14.5 13.5 14.5H2.5C2.3674 14.5 2.24022 14.4473 2.14645 14.3536C2.05268 14.2598 2 14.1326 2 14V3C2 2.86739 2.05268 2.74021 2.14645 2.64644C2.24022 2.55268 2.3674 2.5 2.5 2.5H9C9.13261 2.5 9.25979 2.44732 9.35356 2.35355C9.44733 2.25978 9.5 2.13261 9.5 2C9.5 1.86739 9.44733 1.74021 9.35356 1.64644C9.25979 1.55268 9.13261 1.5 9 1.5H2.5C2.10218 1.5 1.72065 1.65803 1.43934 1.93934C1.15804 2.22064 1 2.60217 1 3V14Z" fill="white"/>
</svg>
