<svg width="18" height="18" viewBox="0 0 18 18" fill="none" xmlns="http://www.w3.org/2000/svg">
<rect width="18" height="18" fill="white" fill-opacity="0.01"/>
<path d="M0 4.5C0 3.90326 0.237053 3.33097 0.65901 2.90901C1.08097 2.48705 1.65326 2.25 2.25 2.25H15.75C16.3467 2.25 16.919 2.48705 17.341 2.90901C17.7629 3.33097 18 3.90326 18 4.5V13.5C18 14.0967 17.7629 14.669 17.341 15.091C16.919 15.5129 16.3467 15.75 15.75 15.75H2.25C1.65326 15.75 1.08097 15.5129 0.65901 15.091C0.237053 14.669 0 14.0967 0 13.5V4.5ZM2.25 3.375C1.95163 3.375 1.66548 3.49353 1.4545 3.7045C1.24353 3.91548 1.125 4.20163 1.125 4.5V4.74412L9 9.46912L16.875 4.74412V4.5C16.875 4.20163 16.7565 3.91548 16.5455 3.7045C16.3345 3.49353 16.0484 3.375 15.75 3.375H2.25ZM16.875 6.05587L11.5785 9.234L16.875 12.4931V6.05587ZM16.8368 13.7914L10.4918 9.8865L9 10.7809L7.50825 9.8865L1.16325 13.7903C1.22718 14.0296 1.36836 14.2412 1.56486 14.3922C1.76137 14.5431 2.00221 14.625 2.25 14.625H15.75C15.9976 14.625 16.2384 14.5434 16.4349 14.3926C16.6313 14.2419 16.7726 14.0306 16.8368 13.7914ZM1.125 12.4931L6.4215 9.234L1.125 6.05587V12.4931Z" fill="#212529"/>
</svg>
