<svg width="36" height="36" viewBox="0 0 36 36" fill="none" xmlns="http://www.w3.org/2000/svg">
<g id="filetype-pdf">
<path id="Vector" fill-rule="evenodd" clip-rule="evenodd" d="M31.4998 10.125V31.5C31.4998 32.6935 31.0257 33.8381 30.1818 34.682C29.3379 35.5259 28.1933 36 26.9999 36H24.7499V33.75H26.9999C27.5966 33.75 28.1689 33.5129 28.5909 33.091C29.0128 32.669 29.2499 32.0967 29.2499 31.5V10.125H24.7499C23.8548 10.125 22.9963 9.76942 22.3634 9.13649C21.7305 8.50355 21.3749 7.64511 21.3749 6.75V2.25H8.99996C8.40322 2.25 7.83093 2.48705 7.40897 2.90901C6.98702 3.33097 6.74997 3.90326 6.74997 4.5V24.75H4.49998V4.5C4.49998 3.30653 4.97408 2.16193 5.81799 1.31802C6.6619 0.474106 7.80649 0 8.99996 0L21.3749 0L31.4998 10.125ZM3.59998 26.6625H0V35.6603H1.77974V32.6408H3.58648C4.23223 32.6408 4.78123 32.5125 5.23347 32.2515C5.69022 31.9882 6.03897 31.6327 6.27522 31.185C6.52044 30.7152 6.64493 30.1917 6.63747 29.6617C6.63747 29.0992 6.51822 28.5907 6.28197 28.1385C6.04698 27.6889 5.68772 27.3164 5.24697 27.0653C4.79698 26.7952 4.25023 26.6625 3.59998 26.6625ZM4.82623 29.6617C4.83434 29.9582 4.76862 30.252 4.63498 30.5168C4.51508 30.7472 4.32846 30.9362 4.09948 31.059C3.83755 31.1886 3.54784 31.2519 3.25573 31.2435H1.77299V28.08H3.25798C3.74848 28.08 4.13323 28.215 4.40998 28.4873C4.68673 28.7618 4.82623 29.1532 4.82623 29.6617ZM7.56446 26.6625V35.6603H10.8494C11.7517 35.6603 12.5009 35.4803 13.0949 35.127C13.696 34.7674 14.1654 34.2238 14.4337 33.5768C14.7262 32.9018 14.8747 32.0872 14.8747 31.1377C14.8747 30.1927 14.7284 29.3872 14.4337 28.719C14.1686 28.0794 13.7037 27.5426 13.1084 27.189C12.5144 26.838 11.7607 26.6625 10.8472 26.6625H7.56446ZM9.3442 28.1138H10.6109C11.1689 28.1138 11.6234 28.2263 11.9812 28.4558C12.3525 28.6986 12.6327 29.0579 12.7777 29.4772C12.9554 29.9295 13.0432 30.4942 13.0432 31.1715C13.0502 31.6203 12.9987 32.068 12.8902 32.5035C12.81 32.847 12.6599 33.1702 12.4492 33.453C12.2534 33.7053 11.9941 33.901 11.6977 34.02C11.3504 34.1499 10.9816 34.2125 10.6109 34.2045H9.3442V28.1138ZM17.7659 32.0805V35.6603H15.9884V26.6625H21.7214V28.1318H17.7659V30.645H21.3794V32.0805H17.7659Z" fill="#ADB5BD"/>
</g>
</svg>
