<svg width="16" height="17" viewBox="0 0 16 17" fill="none" xmlns="http://www.w3.org/2000/svg">
<g clip-path="url(#clip0_882_12398)">
<rect width="16" height="16" transform="translate(0 0.5)" fill="white" fill-opacity="0.01"/>
<path d="M8.35595 1.64689C8.30951 1.60033 8.25433 1.56339 8.19359 1.53818C8.13284 1.51297 8.06772 1.5 8.00195 1.5C7.93619 1.5 7.87107 1.51297 7.81032 1.53818C7.74958 1.56339 7.6944 1.60033 7.64795 1.64689L1.64795 7.64689C1.60155 7.69341 1.56477 7.74862 1.53972 7.80936C1.51467 7.8701 1.50184 7.93519 1.50195 8.00089V15.0009C1.50195 15.1335 1.55463 15.2607 1.6484 15.3544C1.74217 15.4482 1.86935 15.5009 2.00195 15.5009H6.50195C6.63456 15.5009 6.76174 15.4482 6.85551 15.3544C6.94928 15.2607 7.00195 15.1335 7.00195 15.0009V11.0009H9.00195V15.0009C9.00195 15.1335 9.05463 15.2607 9.1484 15.3544C9.24217 15.4482 9.36935 15.5009 9.50195 15.5009H14.002C14.1346 15.5009 14.2617 15.4482 14.3555 15.3544C14.4493 15.2607 14.502 15.1335 14.502 15.0009V8.00089C14.5021 7.93519 14.4892 7.8701 14.4642 7.80936C14.4391 7.74862 14.4024 7.69341 14.356 7.64689L13.002 6.29389V3.00089C13.002 2.86829 12.9493 2.74111 12.8555 2.64734C12.7617 2.55357 12.6346 2.50089 12.502 2.50089H11.502C11.3693 2.50089 11.2422 2.55357 11.1484 2.64734C11.0546 2.74111 11.002 2.86829 11.002 3.00089V4.29389L8.35595 1.64689ZM2.50195 14.5009V8.20789L8.00195 2.70789L13.502 8.20789V14.5009H10.002V10.5009C10.002 10.3683 9.94928 10.2411 9.85551 10.1473C9.76174 10.0536 9.63456 10.0009 9.50195 10.0009H6.50195C6.36935 10.0009 6.24217 10.0536 6.1484 10.1473C6.05463 10.2411 6.00195 10.3683 6.00195 10.5009V14.5009H2.50195Z" fill="#0D6EFD"/>
</g>
<defs>
<clipPath id="clip0_882_12398">
<rect width="16" height="16" fill="white" transform="translate(0 0.5)"/>
</clipPath>
</defs>
</svg>
