<svg width="25" height="25" viewBox="0 0 25 25" fill="none" xmlns="http://www.w3.org/2000/svg">
<g clip-path="url(#clip0_837_9792)">
<rect width="24" height="24" transform="translate(0.5 0.5)" fill="white" fill-opacity="0.01"/>
<path fill-rule="evenodd" clip-rule="evenodd" d="M19.2529 23.001C19.054 23.001 18.8632 22.922 18.7226 22.7813C18.5819 22.6407 18.5029 22.4499 18.5029 22.251V2.75098C18.5029 2.55206 18.5819 2.3613 18.7226 2.22065C18.8632 2.07999 19.054 2.00098 19.2529 2.00098C19.4518 2.00098 19.6426 2.07999 19.7833 2.22065C19.9239 2.3613 20.0029 2.55206 20.0029 2.75098V22.251C20.0029 22.4499 19.9239 22.6407 19.7833 22.7813C19.6426 22.922 19.4518 23.001 19.2529 23.001ZM15.5029 12.501C15.5029 12.6999 15.4239 12.8907 15.2833 13.0313C15.1426 13.172 14.9518 13.251 14.7529 13.251H6.06343L9.28393 16.47C9.35366 16.5397 9.40897 16.6225 9.44671 16.7136C9.48445 16.8047 9.50388 16.9024 9.50388 17.001C9.50388 17.0996 9.48445 17.1972 9.44671 17.2884C9.40897 17.3795 9.35366 17.4622 9.28393 17.532C9.2142 17.6017 9.13141 17.657 9.0403 17.6948C8.94919 17.7325 8.85154 17.7519 8.75293 17.7519C8.65431 17.7519 8.55666 17.7325 8.46555 17.6948C8.37444 17.657 8.29166 17.6017 8.22193 17.532L3.72193 13.032C3.65208 12.9623 3.59667 12.8795 3.55886 12.7884C3.52105 12.6973 3.50159 12.5996 3.50159 12.501C3.50159 12.4023 3.52105 12.3046 3.55886 12.2135C3.59667 12.1224 3.65208 12.0396 3.72193 11.97L8.22193 7.46998C8.36276 7.32915 8.55376 7.25003 8.75293 7.25003C8.95209 7.25003 9.1431 7.32915 9.28393 7.46998C9.42476 7.61081 9.50388 7.80181 9.50388 8.00098C9.50388 8.20014 9.42476 8.39115 9.28393 8.53198L6.06343 11.751H14.7529C14.9518 11.751 15.1426 11.83 15.2833 11.9706C15.4239 12.1113 15.5029 12.3021 15.5029 12.501Z" fill="white"/>
</g>
<defs>
<clipPath id="clip0_837_9792">
<rect width="24" height="24" fill="white" transform="translate(0.5 0.5)"/>
</clipPath>
</defs>
</svg>
