<svg width="17" height="17" viewBox="0 0 17 17" fill="none" xmlns="http://www.w3.org/2000/svg">
<path d="M5 3.49902C5 2.83598 5.26339 2.2001 5.73223 1.73126C6.20107 1.26242 6.83696 0.999023 7.5 0.999023C8.16304 0.999023 8.79893 1.26242 9.26777 1.73126C9.73661 2.2001 10 2.83598 10 3.49902V12.499C10 12.8968 9.84196 13.2784 9.56066 13.5597C9.27936 13.841 8.89782 13.999 8.5 13.999C8.10218 13.999 7.72064 13.841 7.43934 13.5597C7.15804 13.2784 7 12.8968 7 12.499V5.49902C7 5.36642 7.05268 5.23924 7.14645 5.14547C7.24021 5.0517 7.36739 4.99902 7.5 4.99902C7.63261 4.99902 7.75979 5.0517 7.85355 5.14547C7.94732 5.23924 8 5.36642 8 5.49902V12.499C8 12.6316 8.05268 12.7588 8.14645 12.8526C8.24021 12.9463 8.36739 12.999 8.5 12.999C8.63261 12.999 8.75979 12.9463 8.85355 12.8526C8.94732 12.7588 9 12.6316 9 12.499V3.49902C9 3.30204 8.9612 3.10699 8.88582 2.925C8.81044 2.74301 8.69995 2.57765 8.56066 2.43836C8.42137 2.29908 8.25601 2.18859 8.07403 2.1132C7.89204 2.03782 7.69698 1.99902 7.5 1.99902C7.30302 1.99902 7.10796 2.03782 6.92597 2.1132C6.74399 2.18859 6.57863 2.29908 6.43934 2.43836C6.30005 2.57765 6.18956 2.74301 6.11418 2.925C6.0388 3.10699 6 3.30204 6 3.49902V12.499C6 13.1621 6.26339 13.7979 6.73223 14.2668C7.20107 14.7356 7.83696 14.999 8.5 14.999C9.16304 14.999 9.79893 14.7356 10.2678 14.2668C10.7366 13.7979 11 13.1621 11 12.499V5.49902C11 5.36642 11.0527 5.23924 11.1464 5.14547C11.2402 5.0517 11.3674 4.99902 11.5 4.99902C11.6326 4.99902 11.7598 5.0517 11.8536 5.14547C11.9473 5.23924 12 5.36642 12 5.49902V12.499C12 13.4273 11.6313 14.3175 10.9749 14.9739C10.3185 15.6303 9.42826 15.999 8.5 15.999C7.57174 15.999 6.6815 15.6303 6.02513 14.9739C5.36875 14.3175 5 13.4273 5 12.499V3.49902Z" fill="#6C757D"/>
</svg>
