<svg width="25" height="25" viewBox="0 0 25 25" fill="none" xmlns="http://www.w3.org/2000/svg">
<g clip-path="url(#clip0_837_8484)">
<rect width="24" height="24" transform="translate(24.5 24.5) rotate(-180)" fill="white" fill-opacity="0.01"/>
<path fill-rule="evenodd" clip-rule="evenodd" d="M5.74707 1.99902C5.94599 1.99902 6.13675 2.07804 6.2774 2.21869C6.41806 2.35934 6.49707 2.55011 6.49707 2.74902L6.49707 22.249C6.49707 22.4479 6.41806 22.6387 6.2774 22.7794C6.13675 22.92 5.94598 22.999 5.74707 22.999C5.54816 22.999 5.3574 22.92 5.21674 22.7794C5.07609 22.6387 4.99707 22.4479 4.99707 22.249L4.99707 2.74902C4.99707 2.55011 5.07609 2.35934 5.21674 2.21869C5.3574 2.07804 5.54816 1.99902 5.74707 1.99902ZM9.49707 12.499C9.49707 12.3001 9.57609 12.1093 9.71674 11.9687C9.8574 11.828 10.0482 11.749 10.2471 11.749L18.9366 11.749L15.7161 8.53002C15.6463 8.46029 15.591 8.37751 15.5533 8.2864C15.5156 8.19529 15.4961 8.09764 15.4961 7.99902C15.4961 7.90041 15.5156 7.80276 15.5533 7.71165C15.591 7.62054 15.6463 7.53775 15.7161 7.46802C15.7858 7.39829 15.8686 7.34298 15.9597 7.30524C16.0508 7.2675 16.1485 7.24808 16.2471 7.24808C16.3457 7.24808 16.4433 7.2675 16.5344 7.30524C16.6256 7.34298 16.7083 7.39829 16.7781 7.46802L21.2781 11.968C21.3479 12.0377 21.4033 12.1205 21.4411 12.2116C21.479 12.3027 21.4984 12.4004 21.4984 12.499C21.4984 12.5977 21.479 12.6954 21.4411 12.7865C21.4033 12.8776 21.3479 12.9604 21.2781 13.03L16.7781 17.53C16.6372 17.6709 16.4462 17.75 16.2471 17.75C16.0479 17.75 15.8569 17.6709 15.7161 17.53C15.5752 17.3892 15.4961 17.1982 15.4961 16.999C15.4961 16.7999 15.5752 16.6089 15.7161 16.468L18.9366 13.249L10.2471 13.249C10.0482 13.249 9.8574 13.17 9.71674 13.0294C9.57609 12.8887 9.49707 12.6979 9.49707 12.499Z" fill="white"/>
</g>
<defs>
<clipPath id="clip0_837_8484">
<rect width="24" height="24" fill="white" transform="translate(24.5 24.5) rotate(-180)"/>
</clipPath>
</defs>
</svg>
