<svg width="20" height="20" viewBox="0 0 20 20" fill="none" xmlns="http://www.w3.org/2000/svg">
<g clip-path="url(#clip0_837_9622)">
<rect width="20" height="20" fill="white" fill-opacity="0.01"/>
<path d="M13.5699 10.1835C13.6281 10.2415 13.6743 10.3105 13.7058 10.3864C13.7373 10.4624 13.7536 10.5438 13.7536 10.626C13.7536 10.7082 13.7373 10.7896 13.7058 10.8655C13.6743 10.9414 13.6281 11.0104 13.5699 11.0685L9.81994 14.8185C9.76188 14.8767 9.69291 14.9229 9.61698 14.9544C9.54105 14.9859 9.45965 15.0021 9.37744 15.0021C9.29523 15.0021 9.21383 14.9859 9.1379 14.9544C9.06197 14.9229 8.993 14.8767 8.93494 14.8185L7.05994 12.9435C7.00183 12.8854 6.95574 12.8164 6.92429 12.7405C6.89284 12.6645 6.87665 12.5832 6.87665 12.501C6.87665 12.4188 6.89284 12.3374 6.92429 12.2615C6.95574 12.1856 7.00183 12.1166 7.05994 12.0585C7.1773 11.9411 7.33647 11.8752 7.50244 11.8752C7.58462 11.8752 7.666 11.8914 7.74192 11.9228C7.81785 11.9543 7.88683 12.0004 7.94494 12.0585L9.37744 13.4922L12.6849 10.1835C12.743 10.1253 12.812 10.0791 12.8879 10.0476C12.9638 10.0161 13.0452 9.99986 13.1274 9.99986C13.2097 9.99986 13.2911 10.0161 13.367 10.0476C13.4429 10.0791 13.5119 10.1253 13.5699 10.1835Z" fill="black" fill-opacity="0.55"/>
<path d="M4.37744 0.000976562C4.5432 0.000976563 4.70217 0.0668246 4.81938 0.184035C4.93659 0.301245 5.00244 0.460216 5.00244 0.625977V1.25098H15.0024V0.625977C15.0024 0.460216 15.0683 0.301245 15.1855 0.184035C15.3027 0.0668246 15.4617 0.000976563 15.6274 0.000976562C15.7932 0.000976563 15.9522 0.0668246 16.0694 0.184035C16.1866 0.301245 16.2524 0.460216 16.2524 0.625977V1.25098H17.5024C18.1655 1.25098 18.8014 1.51437 19.2702 1.98321C19.739 2.45205 20.0024 3.08794 20.0024 3.75098V17.501C20.0024 18.164 19.739 18.7999 19.2702 19.2687C18.8014 19.7376 18.1655 20.001 17.5024 20.001H2.50244C1.8394 20.001 1.20352 19.7376 0.734674 19.2687C0.265834 18.7999 0.00244141 18.164 0.00244141 17.501V3.75098C0.00244141 3.08794 0.265834 2.45205 0.734674 1.98321C1.20352 1.51437 1.8394 1.25098 2.50244 1.25098H3.75244V0.625977C3.75244 0.460216 3.81829 0.301245 3.9355 0.184035C4.05271 0.0668246 4.21168 0.000976563 4.37744 0.000976562ZM2.50244 2.50098C2.17092 2.50098 1.85298 2.63267 1.61856 2.86709C1.38414 3.10151 1.25244 3.41946 1.25244 3.75098V17.501C1.25244 17.8325 1.38414 18.1504 1.61856 18.3849C1.85298 18.6193 2.17092 18.751 2.50244 18.751H17.5024C17.834 18.751 18.1519 18.6193 18.3863 18.3849C18.6207 18.1504 18.7524 17.8325 18.7524 17.501V3.75098C18.7524 3.41946 18.6207 3.10151 18.3863 2.86709C18.1519 2.63267 17.834 2.50098 17.5024 2.50098H2.50244Z" fill="black" fill-opacity="0.55"/>
<path d="M3.12744 5.00098C3.12744 4.83522 3.19329 4.67625 3.3105 4.55903C3.42771 4.44182 3.58668 4.37598 3.75244 4.37598H16.2524C16.4182 4.37598 16.5772 4.44182 16.6944 4.55903C16.8116 4.67625 16.8774 4.83522 16.8774 5.00098V6.25098C16.8774 6.41674 16.8116 6.57571 16.6944 6.69292C16.5772 6.81013 16.4182 6.87598 16.2524 6.87598H3.75244C3.58668 6.87598 3.42771 6.81013 3.3105 6.69292C3.19329 6.57571 3.12744 6.41674 3.12744 6.25098V5.00098Z" fill="black" fill-opacity="0.55"/>
</g>
<defs>
<clipPath id="clip0_837_9622">
<rect width="20" height="20" fill="white"/>
</clipPath>
</defs>
</svg>
