<svg width="20" height="20" viewBox="0 0 20 20" fill="none" xmlns="http://www.w3.org/2000/svg">
<g clip-path="url(#clip0_837_9662)">
<rect width="20" height="20" fill="white" fill-opacity="0.01"/>
<path d="M18.7524 17.501C18.7524 17.501 20.0024 17.501 20.0024 16.251C20.0024 15.001 18.7524 11.251 13.7524 11.251C8.75244 11.251 7.50244 15.001 7.50244 16.251C7.50244 17.501 8.75244 17.501 8.75244 17.501H18.7524ZM8.77994 16.251C8.77071 16.2497 8.76153 16.248 8.75244 16.246C8.75369 15.916 8.96119 14.9585 9.70244 14.096C10.3924 13.2872 11.6049 12.501 13.7524 12.501C15.8987 12.501 17.1112 13.2885 17.8024 14.096C18.5437 14.9585 18.7499 15.9172 18.7524 16.246L18.7424 16.2485C18.7366 16.2495 18.7308 16.2503 18.7249 16.251H8.77994ZM13.7524 8.75098C14.4155 8.75098 15.0514 8.48758 15.5202 8.01874C15.989 7.5499 16.2524 6.91402 16.2524 6.25098C16.2524 5.58794 15.989 4.95205 15.5202 4.48321C15.0514 4.01437 14.4155 3.75098 13.7524 3.75098C13.0894 3.75098 12.4535 4.01437 11.9847 4.48321C11.5158 4.95205 11.2524 5.58794 11.2524 6.25098C11.2524 6.91402 11.5158 7.5499 11.9847 8.01874C12.4535 8.48758 13.0894 8.75098 13.7524 8.75098ZM17.5024 6.25098C17.5024 6.74343 17.4054 7.23107 17.217 7.68604C17.0285 8.14101 16.7523 8.55441 16.4041 8.90263C16.0559 9.25085 15.6425 9.52707 15.1875 9.71553C14.7325 9.90398 14.2449 10.001 13.7524 10.001C13.26 10.001 12.7723 9.90398 12.3174 9.71553C11.8624 9.52707 11.449 9.25085 11.1008 8.90263C10.7526 8.55441 10.4763 8.14101 10.2879 7.68604C10.0994 7.23107 10.0024 6.74343 10.0024 6.25098C10.0024 5.25641 10.3975 4.30259 11.1008 3.59933C11.8041 2.89606 12.7579 2.50098 13.7524 2.50098C14.747 2.50098 15.7008 2.89606 16.4041 3.59933C17.1074 4.30259 17.5024 5.25641 17.5024 6.25098ZM8.67244 11.601C8.17242 11.4435 7.65699 11.34 7.13494 11.2922C6.84161 11.2643 6.5471 11.2506 6.25244 11.251C1.25244 11.251 0.00244141 15.001 0.00244141 16.251C0.00244141 17.0847 0.418691 17.501 1.25244 17.501H6.52244C6.33714 17.1107 6.24472 16.6829 6.25244 16.251C6.25244 14.9885 6.72369 13.6985 7.61494 12.621C7.91869 12.2535 8.27244 11.9097 8.67244 11.601ZM6.15244 12.501C5.41263 13.6126 5.01299 14.9157 5.00244 16.251H1.25244C1.25244 15.926 1.45744 14.9635 2.20244 14.096C2.88369 13.301 4.06744 12.526 6.15244 12.5022V12.501ZM1.87744 6.87598C1.87744 5.88141 2.27253 4.92759 2.97579 4.22433C3.67905 3.52106 4.63288 3.12598 5.62744 3.12598C6.622 3.12598 7.57583 3.52106 8.27909 4.22433C8.98235 4.92759 9.37744 5.88141 9.37744 6.87598C9.37744 7.87054 8.98235 8.82437 8.27909 9.52763C7.57583 10.2309 6.622 10.626 5.62744 10.626C4.63288 10.626 3.67905 10.2309 2.97579 9.52763C2.27253 8.82437 1.87744 7.87054 1.87744 6.87598ZM5.62744 4.37598C4.9644 4.37598 4.32852 4.63937 3.85967 5.10821C3.39083 5.57705 3.12744 6.21294 3.12744 6.87598C3.12744 7.53902 3.39083 8.1749 3.85967 8.64374C4.32852 9.11258 4.9644 9.37598 5.62744 9.37598C6.29048 9.37598 6.92637 9.11258 7.39521 8.64374C7.86405 8.1749 8.12744 7.53902 8.12744 6.87598C8.12744 6.21294 7.86405 5.57705 7.39521 5.10821C6.92637 4.63937 6.29048 4.37598 5.62744 4.37598Z" fill="black" fill-opacity="0.55"/>
</g>
<defs>
<clipPath id="clip0_837_9662">
<rect width="20" height="20" fill="white"/>
</clipPath>
</defs>
</svg>
