<svg width="14" height="14" viewBox="0 0 14 14" fill="none" xmlns="http://www.w3.org/2000/svg">
<path fill-rule="evenodd" clip-rule="evenodd" d="M13.8418 0.0989644C13.8919 0.140033 13.9323 0.191713 13.96 0.250273C13.9877 0.308834 14.002 0.372812 14.002 0.437589V12.6876C14.0019 12.7887 13.9668 12.8867 13.9027 12.9648C13.8386 13.043 13.7493 13.0965 13.6502 13.1163L9.2752 13.9913C9.21859 14.0026 9.16031 14.0026 9.1037 13.9913L4.81445 13.1338L0.525203 13.9913C0.461756 14.004 0.396285 14.0025 0.333509 13.9868C0.270732 13.9711 0.212212 13.9417 0.162165 13.9007C0.112118 13.8597 0.0717898 13.8081 0.0440859 13.7497C0.016382 13.6912 0.0019922 13.6273 0.00195312 13.5626V1.31259C0.00201418 1.21149 0.0370897 1.11353 0.101216 1.03536C0.165342 0.957197 0.254561 0.903655 0.353703 0.883839L4.7287 0.00883936C4.78531 -0.00247504 4.8436 -0.00247504 4.9002 0.00883936L9.18945 0.866339L13.4787 0.00883936C13.5421 -0.0039218 13.6076 -0.00245748 13.6704 0.0131269C13.7332 0.0287112 13.7917 0.0580276 13.8418 0.0989644ZM8.75195 1.67134L5.25195 0.971339V12.3288L8.75195 13.0288V1.67134ZM9.62695 13.0288L13.127 12.3288V0.971339L9.62695 1.67134V13.0288ZM4.37695 12.3288V0.971339L0.876953 1.67134V13.0288L4.37695 12.3288Z" fill="#6C757D"/>
</svg>
