<svg width="20" height="20" viewBox="0 0 20 20" fill="none" xmlns="http://www.w3.org/2000/svg">
<g clip-path="url(#clip0_837_9702)">
<rect width="20" height="20" fill="white" fill-opacity="0.01"/>
<path d="M17.5024 1.25098C17.834 1.25098 18.1519 1.38267 18.3863 1.61709C18.6207 1.85151 18.7524 2.16946 18.7524 2.50098V12.501C18.7524 12.8325 18.6207 13.1504 18.3863 13.3849C18.1519 13.6193 17.834 13.751 17.5024 13.751H14.3774C13.9893 13.751 13.6065 13.8413 13.2594 14.0149C12.9123 14.1885 12.6103 14.4405 12.3774 14.751L10.0024 17.9172L7.62744 14.751C7.39457 14.4405 7.09261 14.1885 6.74548 14.0149C6.39834 13.8413 6.01555 13.751 5.62744 13.751H2.50244C2.17092 13.751 1.85298 13.6193 1.61856 13.3849C1.38414 13.1504 1.25244 12.8325 1.25244 12.501V2.50098C1.25244 2.16946 1.38414 1.85151 1.61856 1.61709C1.85298 1.38267 2.17092 1.25098 2.50244 1.25098H17.5024ZM2.50244 0.000976562C1.8394 0.000976563 1.20352 0.264369 0.734674 0.73321C0.265834 1.20205 0.00244141 1.83794 0.00244141 2.50098V12.501C0.00244141 13.164 0.265834 13.7999 0.734674 14.2687C1.20352 14.7376 1.8394 15.001 2.50244 15.001H5.62744C5.8215 15.001 6.01289 15.0462 6.18646 15.1329C6.36003 15.2197 6.51101 15.3457 6.62744 15.501L9.00244 18.6672C9.11888 18.8225 9.26986 18.9485 9.44342 19.0353C9.61699 19.122 9.80838 19.1672 10.0024 19.1672C10.1965 19.1672 10.3879 19.122 10.5615 19.0353C10.735 18.9485 10.886 18.8225 11.0024 18.6672L13.3774 15.501C13.4939 15.3457 13.6449 15.2197 13.8184 15.1329C13.992 15.0462 14.1834 15.001 14.3774 15.001H17.5024C18.1655 15.001 18.8014 14.7376 19.2702 14.2687C19.739 13.7999 20.0024 13.164 20.0024 12.501V2.50098C20.0024 1.83794 19.739 1.20205 19.2702 0.73321C18.8014 0.264369 18.1655 0.000976563 17.5024 0.000976562H2.50244Z" fill="black" fill-opacity="0.55"/>
<path d="M3.75244 4.37598C3.75244 4.21022 3.81829 4.05125 3.9355 3.93403C4.05271 3.81682 4.21168 3.75098 4.37744 3.75098H15.6274C15.7932 3.75098 15.9522 3.81682 16.0694 3.93403C16.1866 4.05125 16.2524 4.21022 16.2524 4.37598C16.2524 4.54174 16.1866 4.70071 16.0694 4.81792C15.9522 4.93513 15.7932 5.00098 15.6274 5.00098H4.37744C4.21168 5.00098 4.05271 4.93513 3.9355 4.81792C3.81829 4.70071 3.75244 4.54174 3.75244 4.37598ZM3.75244 7.50098C3.75244 7.33522 3.81829 7.17625 3.9355 7.05903C4.05271 6.94182 4.21168 6.87598 4.37744 6.87598H15.6274C15.7932 6.87598 15.9522 6.94182 16.0694 7.05903C16.1866 7.17625 16.2524 7.33522 16.2524 7.50098C16.2524 7.66674 16.1866 7.82571 16.0694 7.94292C15.9522 8.06013 15.7932 8.12598 15.6274 8.12598H4.37744C4.21168 8.12598 4.05271 8.06013 3.9355 7.94292C3.81829 7.82571 3.75244 7.66674 3.75244 7.50098ZM3.75244 10.626C3.75244 10.4602 3.81829 10.3012 3.9355 10.184C4.05271 10.0668 4.21168 10.001 4.37744 10.001H10.6274C10.7932 10.001 10.9522 10.0668 11.0694 10.184C11.1866 10.3012 11.2524 10.4602 11.2524 10.626C11.2524 10.7917 11.1866 10.9507 11.0694 11.0679C10.9522 11.1851 10.7932 11.251 10.6274 11.251H4.37744C4.21168 11.251 4.05271 11.1851 3.9355 11.0679C3.81829 10.9507 3.75244 10.7917 3.75244 10.626Z" fill="black" fill-opacity="0.55"/>
</g>
<defs>
<clipPath id="clip0_837_9702">
<rect width="20" height="20" fill="white"/>
</clipPath>
</defs>
</svg>
