<svg width="19" height="18" viewBox="0 0 19 18" fill="none" xmlns="http://www.w3.org/2000/svg">
  <g clip-path="url(#clip0_574_3824)">
  <rect width="18" height="18" transform="translate(0.315796)" fill="white" fill-opacity="0.01"/>
  <path d="M3.65937 1.51973C3.76499 1.39624 3.89611 1.2971 4.0437 1.22913C4.1913 1.16116 4.35187 1.12597 4.51437 1.12598H14.1219C14.2844 1.12597 14.4449 1.16116 14.5925 1.22913C14.7401 1.2971 14.8712 1.39624 14.9769 1.51973L17.912 4.94423C18.1741 5.25004 18.3181 5.63949 18.3181 6.04223V6.3291C18.3182 6.88595 18.1443 7.4289 17.8207 7.88208C17.4971 8.33525 17.04 8.67599 16.5133 8.85669C15.9865 9.03738 15.4165 9.049 14.8829 8.8899C14.3492 8.73081 13.8786 8.40897 13.5369 7.96935C13.2873 8.29084 12.9674 8.55095 12.6018 8.72976C12.2362 8.90857 11.8345 9.00135 11.4275 9.00098C11.0205 9.00143 10.6188 8.9087 10.2531 8.72988C9.88749 8.55106 9.56765 8.2909 9.31812 7.96935C9.06858 8.2909 8.74874 8.55106 8.38311 8.72988C8.01748 8.9087 7.61576 9.00143 7.20874 9.00098C6.80172 9.00143 6.4 8.9087 6.03437 8.72988C5.66874 8.55106 5.3489 8.2909 5.09937 7.96935C4.75758 8.40897 4.28698 8.73081 3.75334 8.8899C3.21971 9.049 2.6497 9.03738 2.12298 8.85669C1.59626 8.67599 1.13917 8.33525 0.81557 7.88208C0.491975 7.4289 0.318054 6.88595 0.318115 6.3291V6.04223C0.318129 5.63949 0.462179 5.25004 0.72424 4.94423L3.66049 1.5186L3.65937 1.51973ZM5.66187 6.3291C5.66187 6.73936 5.82484 7.13281 6.11493 7.42291C6.40503 7.713 6.79848 7.87598 7.20874 7.87598C7.619 7.87598 8.01245 7.713 8.30255 7.42291C8.59264 7.13281 8.75562 6.73936 8.75562 6.3291C8.75562 6.17992 8.81488 6.03684 8.92037 5.93135C9.02586 5.82586 9.16893 5.7666 9.31812 5.7666C9.4673 5.7666 9.61037 5.82586 9.71586 5.93135C9.82135 6.03684 9.88062 6.17992 9.88062 6.3291C9.88062 6.73936 10.0436 7.13281 10.3337 7.42291C10.6238 7.713 11.0172 7.87598 11.4275 7.87598C11.8377 7.87598 12.2312 7.713 12.5213 7.42291C12.8114 7.13281 12.9744 6.73936 12.9744 6.3291C12.9744 6.17992 13.0336 6.03684 13.1391 5.93135C13.2446 5.82586 13.3877 5.7666 13.5369 5.7666C13.686 5.7666 13.8291 5.82586 13.9346 5.93135C14.0401 6.03684 14.0994 6.17992 14.0994 6.3291C14.0994 6.73936 14.2623 7.13281 14.5524 7.42291C14.8425 7.713 15.236 7.87598 15.6462 7.87598C16.0565 7.87598 16.45 7.713 16.74 7.42291C17.0301 7.13281 17.1931 6.73936 17.1931 6.3291V6.04223C17.1931 5.90816 17.1453 5.77849 17.0581 5.6766L14.1219 2.25098H4.51437L1.57812 5.6766C1.49098 5.77849 1.4431 5.90816 1.44312 6.04223V6.3291C1.44312 6.73936 1.60609 7.13281 1.89618 7.42291C2.18628 7.713 2.57973 7.87598 2.98999 7.87598C3.40025 7.87598 3.7937 7.713 4.0838 7.42291C4.37389 7.13281 4.53687 6.73936 4.53687 6.3291C4.53687 6.17992 4.59613 6.03684 4.70162 5.93135C4.80711 5.82586 4.95018 5.7666 5.09937 5.7666C5.24855 5.7666 5.39162 5.82586 5.49711 5.93135C5.6026 6.03684 5.66187 6.17992 5.66187 6.3291ZM2.00562 9.56348C2.1548 9.56348 2.29787 9.62274 2.40336 9.72823C2.50885 9.83372 2.56812 9.97679 2.56812 10.126V16.876H16.0681V10.126C16.0681 9.97679 16.1274 9.83372 16.2329 9.72823C16.3384 9.62274 16.4814 9.56348 16.6306 9.56348C16.7798 9.56348 16.9229 9.62274 17.0284 9.72823C17.1339 9.83372 17.1931 9.97679 17.1931 10.126V16.876H17.7556C17.9048 16.876 18.0479 16.9352 18.1534 17.0407C18.2589 17.1462 18.3181 17.2893 18.3181 17.4385C18.3181 17.5877 18.2589 17.7307 18.1534 17.8362C18.0479 17.9417 17.9048 18.001 17.7556 18.001H0.880615C0.731431 18.001 0.588357 17.9417 0.482868 17.8362C0.377378 17.7307 0.318115 17.5877 0.318115 17.4385C0.318115 17.2893 0.377378 17.1462 0.482868 17.0407C0.588357 16.9352 0.731431 16.876 0.880615 16.876H1.44312V10.126C1.44312 9.97679 1.50238 9.83372 1.60787 9.72823C1.71336 9.62274 1.85643 9.56348 2.00562 9.56348ZM4.25562 10.126C4.4048 10.126 4.54787 10.1852 4.65336 10.2907C4.75885 10.3962 4.81812 10.5393 4.81812 10.6885V14.626H13.8181V10.6885C13.8181 10.5393 13.8774 10.3962 13.9829 10.2907C14.0884 10.1852 14.2314 10.126 14.3806 10.126C14.5298 10.126 14.6729 10.1852 14.7784 10.2907C14.8839 10.3962 14.9431 10.5393 14.9431 10.6885V14.626C14.9431 14.9243 14.8246 15.2105 14.6136 15.4215C14.4026 15.6325 14.1165 15.751 13.8181 15.751H4.81812C4.51975 15.751 4.2336 15.6325 4.02262 15.4215C3.81164 15.2105 3.69312 14.9243 3.69312 14.626V10.6885C3.69312 10.5393 3.75238 10.3962 3.85787 10.2907C3.96336 10.1852 4.10643 10.126 4.25562 10.126Z" fill="#6C757D"/>
  </g>
  <defs>
  <clipPath id="clip0_574_3824">
  <rect width="18" height="18" fill="white" transform="translate(0.315796)"/>
  </clipPath>
  </defs>
</svg>
