<svg xmlns="http://www.w3.org/2000/svg" width="14" height="14" viewBox="0 0 14 14" fill="none">
  <path d="M11.5208 0.875H1.89581C1.1712 0.875 0.583313 1.46289 0.583313 2.1875V11.8125C0.583313 12.5371 1.1712 13.125 1.89581 13.125H11.5208C12.2454 13.125 12.8333 12.5371 12.8333 11.8125V2.1875C12.8333 1.46289 12.2454 0.875 11.5208 0.875ZM7.14581 8.75H5.83331V10.0625C5.83331 10.3031 5.63644 10.5 5.39581 10.5H4.52081C4.28019 10.5 4.08331 10.3031 4.08331 10.0625V3.9375C4.08331 3.69688 4.28019 3.5 4.52081 3.5H7.14581C8.5923 3.5 9.77081 4.67852 9.77081 6.125C9.77081 7.57148 8.5923 8.75 7.14581 8.75ZM7.14581 5.25H5.83331V7H7.14581C7.62706 7 8.02081 6.60625 8.02081 6.125C8.02081 5.64375 7.62706 5.25 7.14581 5.25Z" fill="#6C757D"/>
</svg>