<svg width="12" height="12" viewBox="0 0 12 12" fill="none" xmlns="http://www.w3.org/2000/svg">
<path d="M11.2517 10.5001C11.2517 10.5001 12.0017 10.5001 12.0017 9.75012C12.0017 9.00012 11.2517 6.75012 8.25171 6.75012C5.25171 6.75012 4.50171 9.00012 4.50171 9.75012C4.50171 10.5001 5.25171 10.5001 5.25171 10.5001H11.2517ZM5.26821 9.75012C5.26267 9.74936 5.25716 9.74836 5.25171 9.74712C5.25246 9.54912 5.37696 8.97462 5.82171 8.45712C6.23571 7.97187 6.96321 7.50012 8.25171 7.50012C9.53946 7.50012 10.267 7.97262 10.6817 8.45712C11.1265 8.97462 11.2502 9.54987 11.2517 9.74712L11.2457 9.74862C11.2422 9.74921 11.2387 9.74971 11.2352 9.75012H5.26821ZM8.25171 5.25012C8.64953 5.25012 9.03106 5.09209 9.31237 4.81078C9.59367 4.52948 9.75171 4.14795 9.75171 3.75012C9.75171 3.3523 9.59367 2.97077 9.31237 2.68946C9.03106 2.40816 8.64953 2.25012 8.25171 2.25012C7.85388 2.25012 7.47235 2.40816 7.19105 2.68946C6.90974 2.97077 6.75171 3.3523 6.75171 3.75012C6.75171 4.14795 6.90974 4.52948 7.19105 4.81078C7.47235 5.09209 7.85388 5.25012 8.25171 5.25012ZM10.5017 3.75012C10.5017 4.0456 10.4435 4.33818 10.3304 4.61116C10.2174 4.88414 10.0516 5.13218 9.8427 5.34111C9.63377 5.55004 9.38573 5.71578 9.11275 5.82885C8.83976 5.94192 8.54718 6.00012 8.25171 6.00012C7.95623 6.00012 7.66365 5.94192 7.39067 5.82885C7.11769 5.71578 6.86965 5.55004 6.66072 5.34111C6.45179 5.13218 6.28605 4.88414 6.17298 4.61116C6.05991 4.33818 6.00171 4.0456 6.00171 3.75012C6.00171 3.15338 6.23876 2.58109 6.66072 2.15913C7.08268 1.73718 7.65497 1.50012 8.25171 1.50012C8.84845 1.50012 9.42074 1.73718 9.8427 2.15913C10.2647 2.58109 10.5017 3.15338 10.5017 3.75012ZM5.20371 6.96012C4.9037 6.86565 4.59444 6.80355 4.28121 6.77487C4.10521 6.75814 3.9285 6.74988 3.75171 6.75012C0.751709 6.75012 0.00170898 9.00012 0.00170898 9.75012C0.00170898 10.2504 0.251459 10.5001 0.751709 10.5001H3.91371C3.80253 10.266 3.74708 10.0093 3.75171 9.75012C3.75171 8.99262 4.03446 8.21862 4.56921 7.57212C4.75146 7.35162 4.96371 7.14537 5.20371 6.96012ZM3.69171 7.50012C3.24782 8.16708 3.00804 8.94899 3.00171 9.75012H0.751709C0.751709 9.55512 0.874709 8.97762 1.32171 8.45712C1.73046 7.98012 2.44071 7.51512 3.69171 7.50087V7.50012ZM1.12671 4.12512C1.12671 3.52838 1.36376 2.95609 1.78572 2.53413C2.20768 2.11218 2.77997 1.87512 3.37671 1.87512C3.97345 1.87512 4.54574 2.11218 4.9677 2.53413C5.38966 2.95609 5.62671 3.52838 5.62671 4.12512C5.62671 4.72186 5.38966 5.29416 4.9677 5.71611C4.54574 6.13807 3.97345 6.37512 3.37671 6.37512C2.77997 6.37512 2.20768 6.13807 1.78572 5.71611C1.36376 5.29416 1.12671 4.72186 1.12671 4.12512ZM3.37671 2.62512C2.97888 2.62512 2.59735 2.78316 2.31605 3.06446C2.03474 3.34577 1.87671 3.7273 1.87671 4.12512C1.87671 4.52295 2.03474 4.90448 2.31605 5.18578C2.59735 5.46709 2.97888 5.62512 3.37671 5.62512C3.77453 5.62512 4.15606 5.46709 4.43737 5.18578C4.71867 4.90448 4.87671 4.52295 4.87671 4.12512C4.87671 3.7273 4.71867 3.34577 4.43737 3.06446C4.15606 2.78316 3.77453 2.62512 3.37671 2.62512Z" fill="#6C757D"/>
</svg>
