<svg xmlns="http://www.w3.org/2000/svg" width="16" height="17" viewBox="0 0 16 17" fill="none">
<g clip-path="url(#clip0_1652_189470)">
<path d="M6 8.5C6.79565 8.5 7.55871 8.18393 8.12132 7.62132C8.68393 7.05871 9 6.29565 9 5.5C9 4.70435 8.68393 3.94129 8.12132 3.37868C7.55871 2.81607 6.79565 2.5 6 2.5C5.20435 2.5 4.44129 2.81607 3.87868 3.37868C3.31607 3.94129 3 4.70435 3 5.5C3 6.29565 3.31607 7.05871 3.87868 7.62132C4.44129 8.18393 5.20435 8.5 6 8.5ZM8 5.5C8 6.03043 7.78929 6.53914 7.41421 6.91421C7.03914 7.28929 6.53043 7.5 6 7.5C5.46957 7.5 4.96086 7.28929 4.58579 6.91421C4.21071 6.53914 4 6.03043 4 5.5C4 4.96957 4.21071 4.46086 4.58579 4.08579C4.96086 3.71071 5.46957 3.5 6 3.5C6.53043 3.5 7.03914 3.71071 7.41421 4.08579C7.78929 4.46086 8 4.96957 8 5.5ZM12 13.5C12 14.5 11 14.5 11 14.5H1C1 14.5 0 14.5 0 13.5C0 12.5 1 9.5 6 9.5C11 9.5 12 12.5 12 13.5ZM11 13.496C10.999 13.25 10.846 12.51 10.168 11.832C9.516 11.18 8.289 10.5 6 10.5C3.71 10.5 2.484 11.18 1.832 11.832C1.154 12.51 1.002 13.25 1 13.496H11Z" fill="#212529"/>
<path fill-rule="evenodd" clip-rule="evenodd" d="M15.854 5.646C15.9006 5.69245 15.9375 5.74762 15.9627 5.80837C15.9879 5.86911 16.0009 5.93423 16.0009 6C16.0009 6.06577 15.9879 6.13089 15.9627 6.19163C15.9375 6.25238 15.9006 6.30755 15.854 6.354L12.854 9.354C12.8076 9.40056 12.7524 9.43751 12.6916 9.46271C12.6309 9.48792 12.5658 9.50089 12.5 9.50089C12.4342 9.50089 12.3691 9.48792 12.3084 9.46271C12.2476 9.43751 12.1924 9.40056 12.146 9.354L10.646 7.854C10.5521 7.76011 10.4994 7.63278 10.4994 7.5C10.4994 7.36722 10.5521 7.23989 10.646 7.146C10.7399 7.05211 10.8672 6.99937 11 6.99937C11.1328 6.99937 11.2601 7.05211 11.354 7.146L12.5 8.293L15.146 5.646C15.1924 5.59944 15.2476 5.56249 15.3084 5.53729C15.3691 5.51208 15.4342 5.49911 15.5 5.49911C15.5658 5.49911 15.6309 5.51208 15.6916 5.53729C15.7524 5.56249 15.8076 5.59944 15.854 5.646Z" fill="#212529"/>
</g>
<defs>
<clipPath id="clip0_1652_189470">
<rect width="16" height="16" fill="white" transform="translate(0 0.5)"/>
</clipPath>
</defs>
</svg>
