<svg width="16" height="16" viewBox="0 0 16 16" fill="none" xmlns="http://www.w3.org/2000/svg">
<g clip-path="url(#clip0_923_12605)">
<rect width="16" height="16" fill="white" fill-opacity="0.01"/>
<g clip-path="url(#clip1_923_12605)">
<path d="M6.00195 5.49902C6.00195 5.89685 5.84392 6.27838 5.56261 6.55968C5.28131 6.84099 4.89978 6.99902 4.50195 6.99902C4.10413 6.99902 3.7226 6.84099 3.44129 6.55968C3.15999 6.27838 3.00195 5.89685 3.00195 5.49902C3.00195 5.1012 3.15999 4.71967 3.44129 4.43836C3.7226 4.15706 4.10413 3.99902 4.50195 3.99902C4.89978 3.99902 5.28131 4.15706 5.56261 4.43836C5.84392 4.71967 6.00195 5.1012 6.00195 5.49902Z" fill="#0D6EFD"/>
<path d="M2.00195 0.999023C1.47152 0.999023 0.962812 1.20974 0.58774 1.58481C0.212667 1.95988 0.00195313 2.46859 0.00195312 2.99902V12.999C0.00195313 13.5295 0.212667 14.0382 0.58774 14.4132C0.962812 14.7883 1.47152 14.999 2.00195 14.999H14.002C14.5324 14.999 15.0411 14.7883 15.4162 14.4132C15.7912 14.0382 16.002 13.5295 16.002 12.999V2.99902C16.002 2.46859 15.7912 1.95988 15.4162 1.58481C15.0411 1.20974 14.5324 0.999023 14.002 0.999023H2.00195ZM14.002 1.99902C14.2672 1.99902 14.5215 2.10438 14.7091 2.29192C14.8966 2.47945 15.002 2.73381 15.002 2.99902V9.49902L11.225 7.55202C11.1312 7.50505 11.025 7.48875 10.9215 7.50544C10.8179 7.52213 10.7222 7.57096 10.648 7.64502L6.93795 11.355L4.27795 9.58302C4.18191 9.51908 4.06672 9.49032 3.95189 9.50162C3.83707 9.51292 3.72969 9.56359 3.64795 9.64502L1.00195 11.999V2.99902C1.00195 2.73381 1.10731 2.47945 1.29485 2.29192C1.48238 2.10438 1.73674 1.99902 2.00195 1.99902H14.002Z" fill="#0D6EFD"/>
</g>
</g>
<defs>
<clipPath id="clip0_923_12605">
<rect width="16" height="16" fill="white"/>
</clipPath>
<clipPath id="clip1_923_12605">
<rect width="16" height="16" fill="white"/>
</clipPath>
</defs>
</svg>
