<svg width="16" height="16" viewBox="0 0 16 16" fill="none" xmlns="http://www.w3.org/2000/svg">
  <g clip-path="url(#clip0_574_23523)">
  <rect width="16" height="16" fill="white" fill-opacity="0.01"/>
  <g clip-path="url(#clip1_574_23523)">
  <path d="M13.9996 0.999023C14.2649 0.999023 14.5192 1.10438 14.7067 1.29192C14.8943 1.47945 14.9996 1.73381 14.9996 1.99902V13.999C14.9996 14.2642 14.8943 14.5186 14.7067 14.7061C14.5192 14.8937 14.2649 14.999 13.9996 14.999H1.99963C1.73442 14.999 1.48006 14.8937 1.29253 14.7061C1.10499 14.5186 0.999634 14.2642 0.999634 13.999V1.99902C0.999634 1.73381 1.10499 1.47945 1.29253 1.29192C1.48006 1.10438 1.73442 0.999023 1.99963 0.999023H13.9996ZM1.99963 -0.000976562C1.4692 -0.000976562 0.960493 0.209737 0.58542 0.58481C0.210348 0.959883 -0.000366211 1.46859 -0.000366211 1.99902V13.999C-0.000366211 14.5295 0.210348 15.0382 0.58542 15.4132C0.960493 15.7883 1.4692 15.999 1.99963 15.999H13.9996C14.5301 15.999 15.0388 15.7883 15.4138 15.4132C15.7889 15.0382 15.9996 14.5295 15.9996 13.999V1.99902C15.9996 1.46859 15.7889 0.959883 15.4138 0.58481C15.0388 0.209737 14.5301 -0.000976562 13.9996 -0.000976562H1.99963Z" fill="white"/>
  <path d="M7.99963 3.99902C8.13224 3.99902 8.25942 4.0517 8.35319 4.14547C8.44696 4.23924 8.49963 4.36642 8.49963 4.49902V7.49902H11.4996C11.6322 7.49902 11.7594 7.5517 11.8532 7.64547C11.947 7.73924 11.9996 7.86642 11.9996 7.99902C11.9996 8.13163 11.947 8.25881 11.8532 8.35258C11.7594 8.44635 11.6322 8.49902 11.4996 8.49902H8.49963V11.499C8.49963 11.6316 8.44696 11.7588 8.35319 11.8526C8.25942 11.9463 8.13224 11.999 7.99963 11.999C7.86703 11.999 7.73985 11.9463 7.64608 11.8526C7.55231 11.7588 7.49963 11.6316 7.49963 11.499V8.49902H4.49963C4.36703 8.49902 4.23985 8.44635 4.14608 8.35258C4.05231 8.25881 3.99963 8.13163 3.99963 7.99902C3.99963 7.86642 4.05231 7.73924 4.14608 7.64547C4.23985 7.5517 4.36703 7.49902 4.49963 7.49902H7.49963V4.49902C7.49963 4.36642 7.55231 4.23924 7.64608 4.14547C7.73985 4.0517 7.86703 3.99902 7.99963 3.99902Z" fill="white"/>
  </g>
  </g>
  <defs>
  <clipPath id="clip0_574_23523">
  <rect width="16" height="16" fill="white"/>
  </clipPath>
  <clipPath id="clip1_574_23523">
  <rect width="16" height="16" fill="white"/>
  </clipPath>
  </defs>
</svg>
