<svg width="16" height="16" viewBox="0 0 16 16" fill="none" xmlns="http://www.w3.org/2000/svg">
<path d="M15.2 3H0.8C0.35825 3 0 3.35825 0 3.8V11.8C0 12.2417 0.35825 12.6 0.8 12.6H15.2C15.6418 12.6 16 12.2417 16 11.8V3.8C16 3.35825 15.6418 3 15.2 3ZM1.2 11.4V9.8C2.08375 9.8 2.8 10.5163 2.8 11.4H1.2ZM1.2 5.8V4.2H2.8C2.8 5.08375 2.08375 5.8 1.2 5.8ZM8 10.2C6.89525 10.2 6 9.12525 6 7.8C6 6.4745 6.8955 5.4 8 5.4C9.1045 5.4 10 6.4745 10 7.8C10 9.12575 9.10425 10.2 8 10.2ZM14.8 11.4H13.2C13.2 10.5163 13.9163 9.8 14.8 9.8V11.4ZM14.8 5.8C13.9163 5.8 13.2 5.08375 13.2 4.2H14.8V5.8Z" fill="#212529"/>
</svg>
