<svg width="19" height="18" viewBox="0 0 19 18" fill="none" xmlns="http://www.w3.org/2000/svg">
  <g clip-path="url(#clip0_574_3812)">
  <rect width="18" height="18" transform="translate(0.315796)" fill="white" fill-opacity="0.01"/>
  <path d="M12.5289 9.16523C12.5812 9.21748 12.6228 9.27955 12.6512 9.34789C12.6795 9.41623 12.6941 9.48949 12.6941 9.56348C12.6941 9.63746 12.6795 9.71073 12.6512 9.77906C12.6228 9.8474 12.5812 9.90948 12.5289 9.96173L9.15387 13.3367C9.10161 13.3891 9.03954 13.4307 8.9712 13.459C8.90286 13.4874 8.8296 13.502 8.75562 13.502C8.68163 13.502 8.60837 13.4874 8.54003 13.459C8.47169 13.4307 8.40962 13.3891 8.35736 13.3367L6.66987 11.6492C6.61757 11.5969 6.57608 11.5348 6.54778 11.4665C6.51947 11.3982 6.5049 11.3249 6.5049 11.251C6.5049 11.177 6.51947 11.1038 6.54778 11.0354C6.57608 10.9671 6.61757 10.905 6.66987 10.8527C6.77549 10.7471 6.91874 10.6878 7.06812 10.6878C7.14208 10.6878 7.21531 10.7023 7.28365 10.7306C7.35198 10.7589 7.41407 10.8004 7.46637 10.8527L8.75562 12.1431L11.7324 9.16523C11.7846 9.11284 11.8467 9.07128 11.915 9.04292C11.9834 9.01457 12.0566 8.99997 12.1306 8.99997C12.2046 8.99997 12.2779 9.01457 12.3462 9.04292C12.4145 9.07128 12.4766 9.11284 12.5289 9.16523Z" fill="#6C757D"/>
  <path d="M4.25562 0.000976562C4.4048 0.000976563 4.54787 0.0602398 4.65336 0.165729C4.75885 0.271218 4.81812 0.414292 4.81812 0.563477V1.12598H13.8181V0.563477C13.8181 0.414292 13.8774 0.271218 13.9829 0.165729C14.0884 0.0602398 14.2314 0.000976563 14.3806 0.000976562C14.5298 0.000976563 14.6729 0.0602398 14.7784 0.165729C14.8839 0.271218 14.9431 0.414292 14.9431 0.563477V1.12598H16.0681C16.6649 1.12598 17.2371 1.36303 17.6591 1.78499C18.0811 2.20694 18.3181 2.77924 18.3181 3.37598V15.751C18.3181 16.3477 18.0811 16.92 17.6591 17.342C17.2371 17.7639 16.6649 18.001 16.0681 18.001H2.56812C1.97138 18.001 1.39908 17.7639 0.977125 17.342C0.555168 16.92 0.318115 16.3477 0.318115 15.751V3.37598C0.318115 2.77924 0.555168 2.20694 0.977125 1.78499C1.39908 1.36303 1.97138 1.12598 2.56812 1.12598H3.69312V0.563477C3.69312 0.414292 3.75238 0.271218 3.85787 0.165729C3.96336 0.0602398 4.10643 0.000976563 4.25562 0.000976562ZM2.56812 2.25098C2.26975 2.25098 1.9836 2.3695 1.77262 2.58048C1.56164 2.79146 1.44312 3.07761 1.44312 3.37598V15.751C1.44312 16.0493 1.56164 16.3355 1.77262 16.5465C1.9836 16.7575 2.26975 16.876 2.56812 16.876H16.0681C16.3665 16.876 16.6526 16.7575 16.8636 16.5465C17.0746 16.3355 17.1931 16.0493 17.1931 15.751V3.37598C17.1931 3.07761 17.0746 2.79146 16.8636 2.58048C16.6526 2.3695 16.3665 2.25098 16.0681 2.25098H2.56812Z" fill="#6C757D"/>
  <path d="M3.13062 4.50098C3.13062 4.35179 3.18988 4.20872 3.29537 4.10323C3.40086 3.99774 3.54393 3.93848 3.69312 3.93848H14.9431C15.0923 3.93848 15.2354 3.99774 15.3409 4.10323C15.4464 4.20872 15.5056 4.35179 15.5056 4.50098V5.62598C15.5056 5.77516 15.4464 5.91823 15.3409 6.02372C15.2354 6.12921 15.0923 6.18848 14.9431 6.18848H3.69312C3.54393 6.18848 3.40086 6.12921 3.29537 6.02372C3.18988 5.91823 3.13062 5.77516 3.13062 5.62598V4.50098Z" fill="#6C757D"/>
  </g>
  <defs>
  <clipPath id="clip0_574_3812">
  <rect width="18" height="18" fill="white" transform="translate(0.315796)"/>
  </clipPath>
  </defs>
</svg>
