<svg width="19" height="18" viewBox="0 0 19 18" fill="none" xmlns="http://www.w3.org/2000/svg">
  <g clip-path="url(#clip0_574_3800)">
  <rect width="18" height="18" transform="translate(0.315796)" fill="white" fill-opacity="0.01"/>
  <path d="M13.528 11.6378C14.6173 10.1514 15.1052 8.3084 14.8941 6.47764C14.6829 4.64688 13.7883 2.96335 12.3892 1.76387C10.9901 0.564382 9.18968 -0.0626005 7.34815 0.00835678C5.50662 0.0793141 3.75979 0.842978 2.45714 2.14657C1.15448 3.45016 0.392067 5.19753 0.322427 7.03911C0.252788 8.88069 0.881058 10.6807 2.08154 12.0789C3.28203 13.4771 4.9662 14.3705 6.79711 14.5804C8.62802 14.7902 10.4706 14.301 11.9563 13.2106H11.9552C11.989 13.2556 12.025 13.2983 12.0655 13.34L16.3967 17.6712C16.6077 17.8823 16.8938 18.001 17.1923 18.0011C17.4907 18.0012 17.7769 17.8827 17.988 17.6718C18.1991 17.4608 18.3178 17.1747 18.3179 16.8762C18.318 16.5778 18.1995 16.2916 17.9886 16.0805L13.6573 11.7492C13.6171 11.7085 13.5739 11.6709 13.528 11.6367V11.6378ZM13.8182 7.31335C13.8182 8.1259 13.6582 8.9305 13.3472 9.6812C13.0363 10.4319 12.5805 11.114 12.0059 11.6886C11.4314 12.2631 10.7493 12.7189 9.99856 13.0299C9.24786 13.3408 8.44326 13.5008 7.63071 13.5008C6.81816 13.5008 6.01356 13.3408 5.26286 13.0299C4.51215 12.7189 3.83005 12.2631 3.25549 11.6886C2.68092 11.114 2.22516 10.4319 1.91421 9.6812C1.60325 8.9305 1.44321 8.1259 1.44321 7.31335C1.44321 5.67232 2.09511 4.0985 3.25549 2.93812C4.41587 1.77774 5.98968 1.12585 7.63071 1.12585C9.27174 1.12585 10.8456 1.77774 12.0059 2.93812C13.1663 4.0985 13.8182 5.67232 13.8182 7.31335Z" fill="#6C757D"/>
  </g>
  <defs>
  <clipPath id="clip0_574_3800">
  <rect width="18" height="18" fill="white" transform="translate(0.315796)"/>
  </clipPath>
  </defs>
</svg>
