<svg width="20" height="20" viewBox="0 0 20 20" fill="none" xmlns="http://www.w3.org/2000/svg">
<g clip-path="url(#clip0_837_9773)">
<rect width="20" height="20" fill="white" fill-opacity="0.01"/>
<path d="M10.0023 5.94334C9.46947 5.94334 8.94184 6.04829 8.44957 6.2522C7.95729 6.45611 7.50999 6.75498 7.13322 7.13175C6.75644 7.50853 6.45757 7.95582 6.25366 8.4481C6.04975 8.94038 5.9448 9.468 5.9448 10.0008C5.9448 10.5337 6.04975 11.0613 6.25366 11.5536C6.45757 12.0459 6.75644 12.4932 7.13322 12.8699C7.50999 13.2467 7.95729 13.5456 8.44957 13.7495C8.94184 13.9534 9.46947 14.0583 10.0023 14.0583C11.0784 14.0583 12.1105 13.6309 12.8714 12.8699C13.6323 12.109 14.0598 11.077 14.0598 10.0008C14.0598 8.92472 13.6323 7.89268 12.8714 7.13175C12.1105 6.37082 11.0784 5.94334 10.0023 5.94334ZM7.1948 10.0008C7.1948 9.25624 7.49059 8.54214 8.0171 8.01564C8.54361 7.48913 9.25771 7.19334 10.0023 7.19334C10.7469 7.19334 11.461 7.48913 11.9875 8.01564C12.514 8.54214 12.8098 9.25624 12.8098 10.0008C12.8098 10.7454 12.514 11.4595 11.9875 11.986C11.461 12.5125 10.7469 12.8083 10.0023 12.8083C9.25771 12.8083 8.54361 12.5125 8.0171 11.986C7.49059 11.4595 7.1948 10.7454 7.1948 10.0008Z" fill="black" fill-opacity="0.55"/>
<path d="M12.2473 1.67959C11.5886 -0.55791 8.41605 -0.55791 7.7573 1.67959L7.6398 2.07834C7.5938 2.23453 7.51343 2.37845 7.40457 2.49954C7.29572 2.62063 7.16115 2.71583 7.01073 2.77815C6.86031 2.84048 6.69784 2.86836 6.53525 2.85974C6.37265 2.85112 6.21404 2.80622 6.07105 2.72834L5.70605 2.52834C3.65605 1.41334 1.4148 3.65584 2.53105 5.70459L2.7298 6.06959C2.80769 6.21258 2.85258 6.37119 2.8612 6.53378C2.86982 6.69638 2.84195 6.85884 2.77962 7.00927C2.71729 7.15969 2.62209 7.29426 2.501 7.40311C2.37991 7.51196 2.23599 7.59233 2.0798 7.63834L1.68105 7.75584C-0.556445 8.41459 -0.556445 11.5871 1.68105 12.2458L2.0798 12.3633C2.23599 12.4093 2.37991 12.4897 2.501 12.5986C2.62209 12.7074 2.71729 12.842 2.77962 12.9924C2.84195 13.1428 2.86982 13.3053 2.8612 13.4679C2.85258 13.6305 2.80769 13.7891 2.7298 13.9321L2.5298 14.2971C1.4148 16.3471 3.65605 18.5896 5.70605 17.4721L6.07105 17.2733C6.21404 17.1955 6.37265 17.1506 6.53525 17.1419C6.69784 17.1333 6.86031 17.1612 7.01073 17.2235C7.16115 17.2859 7.29572 17.381 7.40457 17.5021C7.51343 17.6232 7.5938 17.7671 7.6398 17.9233L7.7573 18.3221C8.41605 20.5596 11.5886 20.5596 12.2473 18.3221L12.3648 17.9233C12.4108 17.7671 12.4912 17.6232 12.6 17.5021C12.7089 17.381 12.8435 17.2859 12.9939 17.2235C13.1443 17.1612 13.3068 17.1333 13.4694 17.1419C13.632 17.1506 13.7906 17.1955 13.9336 17.2733L14.2986 17.4733C16.3486 18.5896 18.5911 16.3458 17.4736 14.2971L17.2748 13.9321C17.1969 13.7891 17.152 13.6305 17.1434 13.4679C17.1348 13.3053 17.1627 13.1428 17.225 12.9924C17.2873 12.842 17.3825 12.7074 17.5036 12.5986C17.6247 12.4897 17.7686 12.4093 17.9248 12.3633L18.3236 12.2458C20.5611 11.5871 20.5611 8.41459 18.3236 7.75584L17.9248 7.63834C17.7686 7.59233 17.6247 7.51196 17.5036 7.40311C17.3825 7.29426 17.2873 7.15969 17.225 7.00927C17.1627 6.85884 17.1348 6.69638 17.1434 6.53378C17.152 6.37119 17.1969 6.21258 17.2748 6.06959L17.4748 5.70459C18.5911 3.65459 16.3473 1.41334 14.2986 2.52959L13.9336 2.72834C13.7906 2.80622 13.632 2.85112 13.4694 2.85974C13.3068 2.86836 13.1443 2.84048 12.9939 2.77815C12.8435 2.71583 12.7089 2.62063 12.6 2.49954C12.4912 2.37845 12.4108 2.23453 12.3648 2.07834L12.2473 1.67959ZM8.95605 2.03334C9.26355 0.98959 10.7411 0.98959 11.0486 2.03334L11.1661 2.43209C11.2648 2.7672 11.4373 3.07595 11.671 3.33571C11.9046 3.59548 12.1934 3.79967 12.5161 3.93331C12.8389 4.06696 13.1875 4.12667 13.5364 4.10808C13.8853 4.08948 14.2256 3.99304 14.5323 3.82584L14.8961 3.62584C15.8511 3.10709 16.8961 4.15084 16.3761 5.10709L16.1773 5.47209C16.0104 5.77887 15.9142 6.11912 15.8958 6.46791C15.8774 6.81669 15.9372 7.16518 16.071 7.48782C16.2047 7.81046 16.409 8.09909 16.6688 8.33256C16.9285 8.56603 17.2373 8.73841 17.5723 8.83709L17.9698 8.95459C19.0136 9.26209 19.0136 10.7396 17.9698 11.0471L17.5711 11.1646C17.2359 11.2634 16.9272 11.4359 16.6674 11.6695C16.4077 11.9031 16.2035 12.1919 16.0698 12.5147C15.9362 12.8375 15.8765 13.1861 15.8951 13.5349C15.9137 13.8838 16.0101 14.2241 16.1773 14.5308L16.3773 14.8946C16.8961 15.8496 15.8523 16.8946 14.8961 16.3746L14.5323 16.1758C14.2255 16.0086 13.8851 15.9123 13.5362 15.8937C13.1872 15.8752 12.8386 15.935 12.5158 16.0688C12.193 16.2026 11.9042 16.4069 11.6707 16.6668C11.4371 16.9267 11.2647 17.2356 11.1661 17.5708L11.0486 17.9683C10.7411 19.0121 9.26355 19.0121 8.95605 17.9683L8.83855 17.5696C8.73973 17.2347 8.56724 16.9261 8.33372 16.6664C8.10019 16.4068 7.81154 16.2027 7.48892 16.0691C7.16629 15.9354 6.81786 15.8757 6.46914 15.8941C6.12042 15.9126 5.78026 16.0089 5.47355 16.1758L5.10855 16.3758C4.15355 16.8946 3.10855 15.8508 3.62855 14.8946L3.8273 14.5308C3.99474 14.224 4.09137 13.8836 4.11009 13.5346C4.12881 13.1856 4.06915 12.8368 3.93548 12.5139C3.80182 12.1909 3.59755 11.902 3.33765 11.6683C3.07776 11.4346 2.76884 11.2621 2.43355 11.1633L2.0348 11.0458C0.991055 10.7383 0.991055 9.26084 2.0348 8.95334L2.43355 8.83584C2.76831 8.73698 3.07673 8.56451 3.33623 8.33107C3.59574 8.09763 3.79976 7.80912 3.93337 7.48666C4.06698 7.16419 4.1268 6.81593 4.10845 6.46736C4.0901 6.1188 3.99404 5.77874 3.8273 5.47209L3.6273 5.10709C3.10855 4.15209 4.1523 3.10709 5.10855 3.62709L5.47355 3.82584C5.78026 3.99281 6.12042 4.08906 6.46914 4.10753C6.81786 4.12601 7.16629 4.06624 7.48892 3.93261C7.81154 3.79898 8.10019 3.59487 8.33372 3.33524C8.56724 3.07561 8.73973 2.76702 8.83855 2.43209L8.95605 2.03334Z" fill="black" fill-opacity="0.55"/>
</g>
<defs>
<clipPath id="clip0_837_9773">
<rect width="20" height="20" fill="white"/>
</clipPath>
</defs>
</svg>
