<svg width="20" height="19" viewBox="0 0 20 19" fill="none" xmlns="http://www.w3.org/2000/svg">
<path d="M3.71494 0.688477C3.8323 0.55127 3.97799 0.441115 4.14198 0.36559C4.30598 0.290066 4.48439 0.250965 4.66494 0.250977H15.3399C15.5205 0.250965 15.6989 0.290066 15.8629 0.36559C16.0269 0.441115 16.1726 0.55127 16.2899 0.688477L19.5512 4.49348C19.8424 4.83327 20.0024 5.26599 20.0024 5.71348V6.03223C20.0025 6.65095 19.8093 7.25423 19.4497 7.75775C19.0902 8.26128 18.5823 8.63989 17.997 8.84066C17.4118 9.04143 16.7785 9.05433 16.1855 8.87756C15.5926 8.7008 15.0697 8.34319 14.6899 7.85473C14.4126 8.21194 14.0572 8.50095 13.651 8.69963C13.2447 8.89831 12.7984 9.00139 12.3462 9.00098C11.894 9.00148 11.4476 8.89844 11.0413 8.69976C10.6351 8.50107 10.2797 8.21201 10.0024 7.85473C9.72518 8.21201 9.3698 8.50107 8.96355 8.69976C8.55729 8.89844 8.11093 9.00148 7.65869 9.00098C7.20645 9.00148 6.7601 8.89844 6.35384 8.69976C5.94758 8.50107 5.5922 8.21201 5.31494 7.85473C4.93518 8.34319 4.41229 8.7008 3.81936 8.87756C3.22643 9.05433 2.59309 9.04143 2.00785 8.84066C1.42261 8.63989 0.91472 8.26128 0.555169 7.75775C0.195619 7.25423 0.00237316 6.65095 0.00244142 6.03223V5.71348C0.00245717 5.26599 0.162512 4.83327 0.453691 4.49348L3.71619 0.687227L3.71494 0.688477ZM5.93994 6.03223C5.93994 6.48807 6.12102 6.92524 6.44335 7.24757C6.76568 7.56989 7.20285 7.75098 7.65869 7.75098C8.11453 7.75098 8.5517 7.56989 8.87403 7.24757C9.19636 6.92524 9.37744 6.48807 9.37744 6.03223C9.37744 5.86647 9.44329 5.7075 9.5605 5.59028C9.67771 5.47307 9.83668 5.40723 10.0024 5.40723C10.1682 5.40723 10.3272 5.47307 10.4444 5.59028C10.5616 5.7075 10.6274 5.86647 10.6274 6.03223C10.6274 6.48807 10.8085 6.92524 11.1309 7.24757C11.4532 7.56989 11.8904 7.75098 12.3462 7.75098C12.802 7.75098 13.2392 7.56989 13.5615 7.24757C13.8839 6.92524 14.0649 6.48807 14.0649 6.03223C14.0649 5.86647 14.1308 5.7075 14.248 5.59028C14.3652 5.47307 14.5242 5.40723 14.6899 5.40723C14.8557 5.40723 15.0147 5.47307 15.1319 5.59028C15.2491 5.7075 15.3149 5.86647 15.3149 6.03223C15.3149 6.48807 15.496 6.92524 15.8184 7.24757C16.1407 7.56989 16.5779 7.75098 17.0337 7.75098C17.4895 7.75098 17.9267 7.56989 18.249 7.24757C18.5714 6.92524 18.7524 6.48807 18.7524 6.03223V5.71348C18.7525 5.56451 18.6993 5.42044 18.6024 5.30723L15.3399 1.50098H4.66494L1.40244 5.30723C1.30563 5.42044 1.25243 5.56451 1.25244 5.71348V6.03223C1.25244 6.48807 1.43352 6.92524 1.75585 7.24757C2.07818 7.56989 2.51535 7.75098 2.97119 7.75098C3.42703 7.75098 3.8642 7.56989 4.18653 7.24757C4.50886 6.92524 4.68994 6.48807 4.68994 6.03223C4.68994 5.86647 4.75579 5.7075 4.873 5.59028C4.99021 5.47307 5.14918 5.40723 5.31494 5.40723C5.4807 5.40723 5.63967 5.47307 5.75688 5.59028C5.87409 5.7075 5.93994 5.86647 5.93994 6.03223ZM1.87744 9.62598C2.0432 9.62598 2.20217 9.69182 2.31938 9.80903C2.43659 9.92624 2.50244 10.0852 2.50244 10.251V17.751H17.5024V10.251C17.5024 10.0852 17.5683 9.92624 17.6855 9.80903C17.8027 9.69182 17.9617 9.62598 18.1274 9.62598C18.2932 9.62598 18.4522 9.69182 18.5694 9.80903C18.6866 9.92624 18.7524 10.0852 18.7524 10.251V17.751H19.3774C19.5432 17.751 19.7022 17.8168 19.8194 17.934C19.9366 18.0512 20.0024 18.2102 20.0024 18.376C20.0024 18.5417 19.9366 18.7007 19.8194 18.8179C19.7022 18.9351 19.5432 19.001 19.3774 19.001H0.627441C0.461681 19.001 0.30271 18.9351 0.1855 18.8179C0.0682895 18.7007 0.00244142 18.5417 0.00244142 18.376C0.00244142 18.2102 0.0682895 18.0512 0.1855 17.934C0.30271 17.8168 0.461681 17.751 0.627441 17.751H1.25244V10.251C1.25244 10.0852 1.31829 9.92624 1.4355 9.80903C1.55271 9.69182 1.71168 9.62598 1.87744 9.62598ZM4.37744 10.251C4.5432 10.251 4.70217 10.3168 4.81938 10.434C4.93659 10.5512 5.00244 10.7102 5.00244 10.876V15.251H15.0024V10.876C15.0024 10.7102 15.0683 10.5512 15.1855 10.434C15.3027 10.3168 15.4617 10.251 15.6274 10.251C15.7932 10.251 15.9522 10.3168 16.0694 10.434C16.1866 10.5512 16.2524 10.7102 16.2524 10.876V15.251C16.2524 15.5825 16.1207 15.9004 15.8863 16.1349C15.6519 16.3693 15.334 16.501 15.0024 16.501H5.00244C4.67092 16.501 4.35298 16.3693 4.11856 16.1349C3.88414 15.9004 3.75244 15.5825 3.75244 15.251V10.876C3.75244 10.7102 3.81829 10.5512 3.9355 10.434C4.05271 10.3168 4.21168 10.251 4.37744 10.251Z" fill="#6C757D"/>
</svg>
