<svg width="16" height="16" viewBox="0 0 16 16" fill="none" xmlns="http://www.w3.org/2000/svg">
    <rect width="16" height="16" fill="white" fill-opacity="0.01" />
    <g clip-path="url(#clip0_303_50963)">
        <rect width="14" height="14" transform="translate(1 1)" fill="white" fill-opacity="0.01" />
        <g clip-path="url(#clip1_303_50963)">
            <path
                d="M14.9996 7.99902C14.9996 7.99902 12.3746 3.18652 7.99963 3.18652C3.62463 3.18652 0.999634 7.99902 0.999634 7.99902C0.999634 7.99902 3.62463 12.8115 7.99963 12.8115C12.3746 12.8115 14.9996 7.99902 14.9996 7.99902ZM2.02601 7.99902C2.44908 7.35601 2.93569 6.75712 3.47851 6.2114C4.60463 5.08352 6.14463 4.06152 7.99963 4.06152C9.85463 4.06152 11.3938 5.08352 12.5216 6.2114C13.0644 6.75712 13.5511 7.35601 13.9741 7.99902C13.9234 8.07515 13.8674 8.15915 13.8035 8.25102C13.5104 8.67102 13.0773 9.23102 12.5216 9.78665C11.3938 10.9145 9.85376 11.9365 7.99963 11.9365C6.14463 11.9365 4.60551 10.9145 3.47763 9.78665C2.93482 9.24092 2.44909 8.64204 2.02601 7.99902Z"
                fill="#6C757D" />
            <path
                d="M7.99963 5.81152C7.41947 5.81152 6.86307 6.04199 6.45284 6.45223C6.0426 6.86246 5.81213 7.41886 5.81213 7.99902C5.81213 8.57918 6.0426 9.13558 6.45284 9.54582C6.86307 9.95606 7.41947 10.1865 7.99963 10.1865C8.57979 10.1865 9.13619 9.95606 9.54643 9.54582C9.95667 9.13558 10.1871 8.57918 10.1871 7.99902C10.1871 7.41886 9.95667 6.86246 9.54643 6.45223C9.13619 6.04199 8.57979 5.81152 7.99963 5.81152ZM4.93713 7.99902C4.93713 7.1868 5.25979 6.40784 5.83412 5.83351C6.40845 5.25918 7.18741 4.93652 7.99963 4.93652C8.81186 4.93652 9.59082 5.25918 10.1651 5.83351C10.7395 6.40784 11.0621 7.1868 11.0621 7.99902C11.0621 8.81125 10.7395 9.59021 10.1651 10.1645C9.59082 10.7389 8.81186 11.0615 7.99963 11.0615C7.18741 11.0615 6.40845 10.7389 5.83412 10.1645C5.25979 9.59021 4.93713 8.81125 4.93713 7.99902Z"
                fill="#6C757D" />
        </g>
    </g>
    <defs>
        <clipPath id="clip0_303_50963">
            <rect width="14" height="14" fill="white" transform="translate(1 1)" />
        </clipPath>
        <clipPath id="clip1_303_50963">
            <rect width="14" height="14" fill="white" transform="translate(1 1)" />
        </clipPath>
    </defs>
</svg>
