<svg width="16" height="16" viewBox="0 0 16 16" fill="none" xmlns="http://www.w3.org/2000/svg">
  <g clip-path="url(#clip0_2022_45003)">
  <path d="M2.86612 14.8499C2.78812 15.2939 3.22612 15.6409 3.61212 15.4429L8.00212 13.1869L12.3911 15.4429C12.7771 15.6409 13.2151 15.2939 13.1371 14.8509L12.3071 10.1209L15.8291 6.76492C16.1591 6.45092 15.9891 5.87692 15.5471 5.81492L10.6491 5.11892L8.46512 0.791923C8.42351 0.704212 8.35787 0.630106 8.27583 0.578215C8.19378 0.526325 8.0987 0.498779 8.00162 0.498779C7.90454 0.498779 7.80945 0.526325 7.72741 0.578215C7.64536 0.630106 7.57972 0.704212 7.53812 0.791923L5.35412 5.11992L0.456118 5.81592C0.0151183 5.87792 -0.155882 6.45192 0.173118 6.76592L3.69612 10.1219L2.86612 14.8519V14.8499ZM7.77112 12.0829L4.08512 13.9769L4.77912 10.0199C4.79538 9.92884 4.78902 9.83515 4.76059 9.7471C4.73217 9.65904 4.68256 9.57932 4.61612 9.51492L1.71012 6.74492L5.76212 6.16892C5.84602 6.15625 5.92561 6.12343 5.99405 6.07327C6.0625 6.02312 6.11776 5.95711 6.15512 5.88092L8.00012 2.22292L9.84712 5.88092C9.88447 5.95711 9.93974 6.02312 10.0082 6.07327C10.0766 6.12343 10.1562 6.15625 10.2401 6.16892L14.2921 6.74392L11.3861 9.51392C11.3195 9.57842 11.2698 9.65831 11.2414 9.74655C11.213 9.8348 11.2067 9.92868 11.2231 10.0199L11.9171 13.9769L8.23112 12.0829C8.15984 12.0462 8.08081 12.027 8.00062 12.027C7.92043 12.027 7.8414 12.0462 7.77012 12.0829H7.77112Z" fill="#212529"/>
  </g>
  <defs>
  <clipPath id="clip0_2022_45003">
  <rect width="16" height="16" fill="white"/>
  </clipPath>
  </defs>
</svg>
