<svg width="16" height="17" viewBox="0 0 16 17" fill="none" xmlns="http://www.w3.org/2000/svg">
<g clip-path="url(#clip0_1485_11904)">
<path d="M8 12.5C9.06087 12.5 10.0783 12.0786 10.8284 11.3284C11.5786 10.5783 12 9.56087 12 8.5C12 7.43913 11.5786 6.42172 10.8284 5.67157C10.0783 4.92143 9.06087 4.5 8 4.5C6.93913 4.5 5.92172 4.92143 5.17157 5.67157C4.42143 6.42172 4 7.43913 4 8.5C4 9.56087 4.42143 10.5783 5.17157 11.3284C5.92172 12.0786 6.93913 12.5 8 12.5ZM8 0.5C8.13261 0.5 8.25979 0.552678 8.35355 0.646447C8.44732 0.740215 8.5 0.867392 8.5 1V3C8.5 3.13261 8.44732 3.25979 8.35355 3.35355C8.25979 3.44732 8.13261 3.5 8 3.5C7.86739 3.5 7.74021 3.44732 7.64645 3.35355C7.55268 3.25979 7.5 3.13261 7.5 3V1C7.5 0.867392 7.55268 0.740215 7.64645 0.646447C7.74021 0.552678 7.86739 0.5 8 0.5V0.5ZM8 13.5C8.13261 13.5 8.25979 13.5527 8.35355 13.6464C8.44732 13.7402 8.5 13.8674 8.5 14V16C8.5 16.1326 8.44732 16.2598 8.35355 16.3536C8.25979 16.4473 8.13261 16.5 8 16.5C7.86739 16.5 7.74021 16.4473 7.64645 16.3536C7.55268 16.2598 7.5 16.1326 7.5 16V14C7.5 13.8674 7.55268 13.7402 7.64645 13.6464C7.74021 13.5527 7.86739 13.5 8 13.5ZM16 8.5C16 8.63261 15.9473 8.75979 15.8536 8.85355C15.7598 8.94732 15.6326 9 15.5 9H13.5C13.3674 9 13.2402 8.94732 13.1464 8.85355C13.0527 8.75979 13 8.63261 13 8.5C13 8.36739 13.0527 8.24021 13.1464 8.14645C13.2402 8.05268 13.3674 8 13.5 8H15.5C15.6326 8 15.7598 8.05268 15.8536 8.14645C15.9473 8.24021 16 8.36739 16 8.5ZM3 8.5C3 8.63261 2.94732 8.75979 2.85355 8.85355C2.75979 8.94732 2.63261 9 2.5 9H0.5C0.367392 9 0.240215 8.94732 0.146447 8.85355C0.0526784 8.75979 0 8.63261 0 8.5C0 8.36739 0.0526784 8.24021 0.146447 8.14645C0.240215 8.05268 0.367392 8 0.5 8H2.5C2.63261 8 2.75979 8.05268 2.85355 8.14645C2.94732 8.24021 3 8.36739 3 8.5ZM13.657 2.843C13.7507 2.93676 13.8034 3.06392 13.8034 3.1965C13.8034 3.32908 13.7507 3.45624 13.657 3.55L12.243 4.965C12.1965 5.01142 12.1413 5.04823 12.0806 5.07333C12.0199 5.09843 11.9548 5.11132 11.8891 5.11128C11.7565 5.11118 11.6293 5.05839 11.5355 4.9645C11.4891 4.91801 11.4523 4.86284 11.4272 4.80212C11.4021 4.74141 11.3892 4.67634 11.3892 4.61065C11.3893 4.47796 11.4421 4.35075 11.536 4.257L12.95 2.843C13.0438 2.74926 13.1709 2.69661 13.3035 2.69661C13.4361 2.69661 13.5632 2.74926 13.657 2.843ZM4.464 12.036C4.55774 12.1298 4.61039 12.2569 4.61039 12.3895C4.61039 12.5221 4.55774 12.6492 4.464 12.743L3.05 14.157C2.9557 14.2481 2.8294 14.2985 2.6983 14.2973C2.5672 14.2962 2.44179 14.2436 2.34909 14.1509C2.25639 14.0582 2.2038 13.9328 2.20266 13.8017C2.20152 13.6706 2.25192 13.5443 2.343 13.45L3.757 12.036C3.85076 11.9423 3.97792 11.8896 4.1105 11.8896C4.24308 11.8896 4.37024 11.9423 4.464 12.036ZM13.657 14.157C13.5632 14.2507 13.4361 14.3034 13.3035 14.3034C13.1709 14.3034 13.0438 14.2507 12.95 14.157L11.536 12.743C11.4449 12.6487 11.3945 12.5224 11.3957 12.3913C11.3968 12.2602 11.4494 12.1348 11.5421 12.0421C11.6348 11.9494 11.7602 11.8968 11.8913 11.8957C12.0224 11.8945 12.1487 11.9449 12.243 12.036L13.657 13.45C13.7507 13.5438 13.8034 13.6709 13.8034 13.8035C13.8034 13.9361 13.7507 14.0632 13.657 14.157ZM4.464 4.965C4.37024 5.05874 4.24308 5.11139 4.1105 5.11139C3.97792 5.11139 3.85076 5.05874 3.757 4.965L2.343 3.55C2.29524 3.50388 2.25715 3.4487 2.23095 3.3877C2.20474 3.3267 2.19095 3.26109 2.19037 3.1947C2.1898 3.12831 2.20245 3.06247 2.22759 3.00102C2.25273 2.93957 2.28986 2.88375 2.3368 2.8368C2.38375 2.78986 2.43957 2.75273 2.50102 2.72759C2.56247 2.70245 2.62831 2.6898 2.6947 2.69037C2.76109 2.69095 2.8267 2.70474 2.8877 2.73095C2.9487 2.75715 3.00388 2.79524 3.05 2.843L4.464 4.257C4.51056 4.30345 4.54751 4.35862 4.57271 4.41937C4.59792 4.48011 4.61089 4.54523 4.61089 4.611C4.61089 4.67677 4.59792 4.74189 4.57271 4.80263C4.54751 4.86338 4.51056 4.91855 4.464 4.965Z" fill="#FE8902"/>
</g>
<defs>
<clipPath id="clip0_1485_11904">
<rect width="16" height="16" fill="white" transform="translate(0 0.5)"/>
</clipPath>
</defs>
</svg>
