<svg width="12" height="12" viewBox="0 0 12 12" fill="none" xmlns="http://www.w3.org/2000/svg">
<g clip-path="url(#clip0_1400_11631)">
<rect width="12" height="12" fill="white" fill-opacity="0.01"/>
<g clip-path="url(#clip1_1400_11631)">
<path d="M6 9C6.79565 9 7.55871 8.68393 8.12132 8.12132C8.68393 7.55871 9 6.79565 9 6C9 5.20435 8.68393 4.44129 8.12132 3.87868C7.55871 3.31607 6.79565 3 6 3C5.20435 3 4.44129 3.31607 3.87868 3.87868C3.31607 4.44129 3 5.20435 3 6C3 6.79565 3.31607 7.55871 3.87868 8.12132C4.44129 8.68393 5.20435 9 6 9ZM6 0C6.09946 0 6.19484 0.0395088 6.26517 0.109835C6.33549 0.180161 6.375 0.275544 6.375 0.375V1.875C6.375 1.97446 6.33549 2.06984 6.26517 2.14016C6.19484 2.21049 6.09946 2.25 6 2.25C5.90054 2.25 5.80516 2.21049 5.73484 2.14016C5.66451 2.06984 5.625 1.97446 5.625 1.875V0.375C5.625 0.275544 5.66451 0.180161 5.73484 0.109835C5.80516 0.0395088 5.90054 0 6 0V0ZM6 9.75C6.09946 9.75 6.19484 9.78951 6.26517 9.85983C6.33549 9.93016 6.375 10.0255 6.375 10.125V11.625C6.375 11.7245 6.33549 11.8198 6.26517 11.8902C6.19484 11.9605 6.09946 12 6 12C5.90054 12 5.80516 11.9605 5.73484 11.8902C5.66451 11.8198 5.625 11.7245 5.625 11.625V10.125C5.625 10.0255 5.66451 9.93016 5.73484 9.85983C5.80516 9.78951 5.90054 9.75 6 9.75ZM12 6C12 6.09946 11.9605 6.19484 11.8902 6.26517C11.8198 6.33549 11.7245 6.375 11.625 6.375H10.125C10.0255 6.375 9.93016 6.33549 9.85983 6.26517C9.78951 6.19484 9.75 6.09946 9.75 6C9.75 5.90054 9.78951 5.80516 9.85983 5.73484C9.93016 5.66451 10.0255 5.625 10.125 5.625H11.625C11.7245 5.625 11.8198 5.66451 11.8902 5.73484C11.9605 5.80516 12 5.90054 12 6ZM2.25 6C2.25 6.09946 2.21049 6.19484 2.14016 6.26517C2.06984 6.33549 1.97446 6.375 1.875 6.375H0.375C0.275544 6.375 0.180161 6.33549 0.109835 6.26517C0.0395088 6.19484 0 6.09946 0 6C0 5.90054 0.0395088 5.80516 0.109835 5.73484C0.180161 5.66451 0.275544 5.625 0.375 5.625H1.875C1.97446 5.625 2.06984 5.66451 2.14016 5.73484C2.21049 5.80516 2.25 5.90054 2.25 6ZM10.2428 1.75725C10.3131 1.82757 10.3525 1.92294 10.3525 2.02238C10.3525 2.12181 10.3131 2.21718 10.2428 2.2875L9.18225 3.34875C9.14738 3.38357 9.106 3.41118 9.06047 3.43C9.01493 3.44882 8.96613 3.45849 8.91686 3.45846C8.81735 3.45839 8.72194 3.41879 8.65162 3.34837C8.61681 3.31351 8.5892 3.27213 8.57038 3.22659C8.55155 3.18106 8.54188 3.13226 8.54192 3.08298C8.54199 2.98347 8.58158 2.88807 8.652 2.81775L9.7125 1.75725C9.78282 1.68695 9.87819 1.64746 9.97762 1.64746C10.0771 1.64746 10.1724 1.68695 10.2428 1.75725ZM3.348 8.652C3.4183 8.72232 3.45779 8.81769 3.45779 8.91712C3.45779 9.01656 3.4183 9.11193 3.348 9.18225L2.2875 10.2428C2.21677 10.3111 2.12205 10.3489 2.02372 10.348C1.9254 10.3471 1.83135 10.3077 1.76182 10.2382C1.69229 10.1687 1.65285 10.0746 1.652 9.97628C1.65114 9.87795 1.68894 9.78323 1.75725 9.7125L2.81775 8.652C2.88807 8.5817 2.98344 8.5422 3.08287 8.5422C3.18231 8.5422 3.27768 8.5817 3.348 8.652ZM10.2428 10.2428C10.1724 10.3131 10.0771 10.3525 9.97762 10.3525C9.87819 10.3525 9.78282 10.3131 9.7125 10.2428L8.652 9.18225C8.58369 9.11152 8.54589 9.0168 8.54675 8.91847C8.5476 8.82015 8.58704 8.7261 8.65657 8.65657C8.7261 8.58704 8.82015 8.5476 8.91847 8.54675C9.0168 8.54589 9.11152 8.58369 9.18225 8.652L10.2428 9.7125C10.3131 9.78282 10.3525 9.87819 10.3525 9.97762C10.3525 10.0771 10.3131 10.1724 10.2428 10.2428ZM3.348 3.34875C3.27768 3.41905 3.18231 3.45855 3.08287 3.45855C2.98344 3.45855 2.88807 3.41905 2.81775 3.34875L1.75725 2.2875C1.72143 2.25291 1.69287 2.21153 1.67321 2.16578C1.65356 2.12003 1.64321 2.07082 1.64278 2.02103C1.64235 1.97123 1.65184 1.92185 1.67069 1.87577C1.68955 1.82968 1.71739 1.78781 1.7526 1.7526C1.78781 1.71739 1.82968 1.68955 1.87577 1.67069C1.92185 1.65184 1.97123 1.64235 2.02103 1.64278C2.07082 1.64321 2.12003 1.65356 2.16578 1.67321C2.21153 1.69287 2.25291 1.72143 2.2875 1.75725L3.348 2.81775C3.38292 2.85258 3.41063 2.89397 3.42953 2.93952C3.44844 2.98508 3.45817 3.03392 3.45817 3.08325C3.45817 3.13258 3.44844 3.18142 3.42953 3.22698C3.41063 3.27253 3.38292 3.31392 3.348 3.34875Z" fill="#FE8902"/>
</g>
</g>
<defs>
<clipPath id="clip0_1400_11631">
<rect width="12" height="12" fill="white"/>
</clipPath>
<clipPath id="clip1_1400_11631">
<rect width="12" height="12" fill="white"/>
</clipPath>
</defs>
</svg>
