<svg width="16" height="16" viewBox="0 0 16 16" fill="none" xmlns="http://www.w3.org/2000/svg">
<g id="telephone" clip-path="url(#clip0_1271_182132)">
<path id="Vector" d="M3.65398 1.32805C3.59495 1.25211 3.52043 1.1896 3.43538 1.14468C3.35034 1.09975 3.2567 1.07343 3.1607 1.06747C3.0647 1.06151 2.96853 1.07605 2.87858 1.11012C2.78863 1.14418 2.70695 1.19699 2.63898 1.26505L1.60498 2.30005C1.12198 2.78405 0.943983 3.46905 1.15498 4.07005C2.03072 6.55764 3.45528 8.81615 5.32298 10.6781C7.18491 12.5457 9.44341 13.9703 11.931 14.8461C12.532 15.0571 13.217 14.8791 13.701 14.3961L14.735 13.3621C14.803 13.2941 14.8559 13.2124 14.8899 13.1225C14.924 13.0325 14.9385 12.9363 14.9326 12.8403C14.9266 12.7443 14.9003 12.6507 14.8554 12.5656C14.8104 12.4806 14.7479 12.4061 14.672 12.3471L12.365 10.5531C12.2839 10.4901 12.1895 10.4465 12.089 10.4253C11.9885 10.4042 11.8846 10.4061 11.785 10.4311L9.59498 10.9781C9.30266 11.0511 8.9964 11.0472 8.70603 10.9668C8.41565 10.8864 8.15105 10.7321 7.93798 10.5191L5.48198 8.06205C5.26875 7.84909 5.11431 7.58453 5.0337 7.29415C4.95308 7.00377 4.94905 6.69746 5.02198 6.40505L5.56998 4.21505C5.59489 4.11545 5.59685 4.01149 5.57572 3.91101C5.55458 3.81054 5.51091 3.71618 5.44798 3.63505L3.65398 1.32805ZM1.88398 0.511051C2.05898 0.336 2.26921 0.200181 2.50072 0.112612C2.73223 0.0250429 2.97973 -0.0122724 3.22676 0.00314389C3.4738 0.0185602 3.71474 0.0863553 3.93356 0.202028C4.15239 0.3177 4.34411 0.478602 4.49598 0.674051L6.28998 2.98005C6.61898 3.40305 6.73498 3.95405 6.60498 4.47405L6.05798 6.66405C6.0297 6.77748 6.03123 6.8963 6.06242 7.00896C6.09361 7.12163 6.1534 7.22431 6.23598 7.30705L8.69298 9.76405C8.77582 9.8468 8.87868 9.90669 8.99153 9.93789C9.10439 9.96908 9.22341 9.97052 9.33698 9.94205L11.526 9.39505C11.7826 9.33089 12.0504 9.32591 12.3093 9.38048C12.5681 9.43505 12.8111 9.54775 13.02 9.71005L15.326 11.5041C16.155 12.149 16.231 13.3741 15.489 14.1151L14.455 15.1491C13.715 15.8891 12.609 16.2141 11.578 15.8511C8.93917 14.9226 6.54325 13.4119 4.56798 11.4311C2.58727 9.45607 1.07659 7.06051 0.147983 4.42205C-0.214017 3.39205 0.110983 2.28505 0.850983 1.54505L1.88498 0.511051H1.88398Z" fill="#212529"/>
</g>
<defs>
<clipPath id="clip0_1271_182132">
<rect width="16" height="16" fill="white"/>
</clipPath>
</defs>
</svg>
