<svg width="12" height="12" viewBox="0 0 12 12" fill="none" xmlns="http://www.w3.org/2000/svg">
<path d="M6.00171 2.62512C6.00171 2.52567 5.9622 2.43028 5.89187 2.35996C5.82155 2.28963 5.72617 2.25012 5.62671 2.25012C5.52725 2.25012 5.43187 2.28963 5.36154 2.35996C5.29122 2.43028 5.25171 2.52567 5.25171 2.62512V6.75012C5.25173 6.81622 5.26922 6.88114 5.30241 6.9383C5.3356 6.99546 5.38331 7.04284 5.44071 7.07562L8.06571 8.57562C8.15185 8.62218 8.25279 8.63319 8.34695 8.60631C8.4411 8.57943 8.52101 8.51679 8.5696 8.43177C8.61818 8.34675 8.63158 8.24611 8.60693 8.15134C8.58229 8.05657 8.52155 7.9752 8.43771 7.92462L6.00171 6.53262V2.62512Z" fill="#6C757D"/>
<path d="M6.00171 12.0001C7.59301 12.0001 9.11913 11.368 10.2444 10.2428C11.3696 9.11755 12.0017 7.59142 12.0017 6.00012C12.0017 4.40882 11.3696 2.8827 10.2444 1.75748C9.11913 0.632263 7.59301 0.00012207 6.00171 0.00012207C4.41041 0.00012207 2.88429 0.632263 1.75907 1.75748C0.63385 2.8827 0.00170898 4.40882 0.00170898 6.00012C0.00170898 7.59142 0.63385 9.11755 1.75907 10.2428C2.88429 11.368 4.41041 12.0001 6.00171 12.0001ZM11.2517 6.00012C11.2517 7.39251 10.6986 8.72787 9.71402 9.71243C8.72945 10.697 7.3941 11.2501 6.00171 11.2501C4.60932 11.2501 3.27396 10.697 2.2894 9.71243C1.30483 8.72787 0.751709 7.39251 0.751709 6.00012C0.751709 4.60774 1.30483 3.27238 2.2894 2.28781C3.27396 1.30325 4.60932 0.750122 6.00171 0.750122C7.3941 0.750122 8.72945 1.30325 9.71402 2.28781C10.6986 3.27238 11.2517 4.60774 11.2517 6.00012Z" fill="#6C757D"/>
</svg>
