<svg width="20" height="20" viewBox="0 0 20 20" fill="none" xmlns="http://www.w3.org/2000/svg">
<g clip-path="url(#clip0_837_9682)">
<rect width="20" height="20" fill="white" fill-opacity="0.01"/>
<path fill-rule="evenodd" clip-rule="evenodd" d="M2.50244 3.12598C2.33668 3.12598 2.17771 3.19182 2.0605 3.30903C1.94329 3.42625 1.87744 3.58522 1.87744 3.75098V5.00098C1.87744 5.16674 1.94329 5.32571 2.0605 5.44292C2.17771 5.56013 2.33668 5.62598 2.50244 5.62598H3.75244C3.9182 5.62598 4.07717 5.56013 4.19438 5.44292C4.31159 5.32571 4.37744 5.16674 4.37744 5.00098V3.75098C4.37744 3.58522 4.31159 3.42625 4.19438 3.30903C4.07717 3.19182 3.9182 3.12598 3.75244 3.12598H2.50244ZM3.75244 3.75098H2.50244V5.00098H3.75244V3.75098Z" fill="black" fill-opacity="0.55"/>
<path d="M6.25244 4.37598C6.25244 4.21022 6.31829 4.05125 6.4355 3.93403C6.55271 3.81682 6.71168 3.75098 6.87744 3.75098H18.1274C18.2932 3.75098 18.4522 3.81682 18.5694 3.93403C18.6866 4.05125 18.7524 4.21022 18.7524 4.37598C18.7524 4.54174 18.6866 4.70071 18.5694 4.81792C18.4522 4.93513 18.2932 5.00098 18.1274 5.00098H6.87744C6.71168 5.00098 6.55271 4.93513 6.4355 4.81792C6.31829 4.70071 6.25244 4.54174 6.25244 4.37598ZM6.87744 8.75098C6.71168 8.75098 6.55271 8.81682 6.4355 8.93403C6.31829 9.05125 6.25244 9.21022 6.25244 9.37598C6.25244 9.54174 6.31829 9.70071 6.4355 9.81792C6.55271 9.93513 6.71168 10.001 6.87744 10.001H18.1274C18.2932 10.001 18.4522 9.93513 18.5694 9.81792C18.6866 9.70071 18.7524 9.54174 18.7524 9.37598C18.7524 9.21022 18.6866 9.05125 18.5694 8.93403C18.4522 8.81682 18.2932 8.75098 18.1274 8.75098H6.87744ZM6.87744 13.751C6.71168 13.751 6.55271 13.8168 6.4355 13.934C6.31829 14.0512 6.25244 14.2102 6.25244 14.376C6.25244 14.5417 6.31829 14.7007 6.4355 14.8179C6.55271 14.9351 6.71168 15.001 6.87744 15.001H18.1274C18.2932 15.001 18.4522 14.9351 18.5694 14.8179C18.6866 14.7007 18.7524 14.5417 18.7524 14.376C18.7524 14.2102 18.6866 14.0512 18.5694 13.934C18.4522 13.8168 18.2932 13.751 18.1274 13.751H6.87744Z" fill="black" fill-opacity="0.55"/>
<path fill-rule="evenodd" clip-rule="evenodd" d="M1.87744 8.75098C1.87744 8.58522 1.94329 8.42625 2.0605 8.30903C2.17771 8.19182 2.33668 8.12598 2.50244 8.12598H3.75244C3.9182 8.12598 4.07717 8.19182 4.19438 8.30903C4.31159 8.42625 4.37744 8.58522 4.37744 8.75098V10.001C4.37744 10.1667 4.31159 10.3257 4.19438 10.4429C4.07717 10.5601 3.9182 10.626 3.75244 10.626H2.50244C2.33668 10.626 2.17771 10.5601 2.0605 10.4429C1.94329 10.3257 1.87744 10.1667 1.87744 10.001V8.75098ZM2.50244 8.75098H3.75244V10.001H2.50244V8.75098ZM2.50244 13.126C2.33668 13.126 2.17771 13.1918 2.0605 13.309C1.94329 13.4262 1.87744 13.5852 1.87744 13.751V15.001C1.87744 15.1667 1.94329 15.3257 2.0605 15.4429C2.17771 15.5601 2.33668 15.626 2.50244 15.626H3.75244C3.9182 15.626 4.07717 15.5601 4.19438 15.4429C4.31159 15.3257 4.37744 15.1667 4.37744 15.001V13.751C4.37744 13.5852 4.31159 13.4262 4.19438 13.309C4.07717 13.1918 3.9182 13.126 3.75244 13.126H2.50244ZM3.75244 13.751H2.50244V15.001H3.75244V13.751Z" fill="black" fill-opacity="0.55"/>
</g>
<defs>
<clipPath id="clip0_837_9682">
<rect width="20" height="20" fill="white"/>
</clipPath>
</defs>
</svg>
