<svg width="15" height="15" viewBox="0 0 15 15" fill="none" xmlns="http://www.w3.org/2000/svg">
    <g clip-path="url(#clip0_2041_46473)">
    <path d="M6.1875 1.375H8.8125C8.92853 1.375 9.03981 1.42109 9.12186 1.50314C9.20391 1.58519 9.25 1.69647 9.25 1.8125V2.6875H5.75V1.8125C5.75 1.69647 5.79609 1.58519 5.87814 1.50314C5.96019 1.42109 6.07147 1.375 6.1875 1.375ZM10.125 2.6875V1.8125C10.125 1.4644 9.98672 1.13056 9.74058 0.884422C9.49444 0.638281 9.1606 0.5 8.8125 0.5L6.1875 0.5C5.8394 0.5 5.50556 0.638281 5.25942 0.884422C5.01328 1.13056 4.875 1.4644 4.875 1.8125V2.6875H2.69275C2.68983 2.68747 2.68692 2.68747 2.684 2.6875H1.8125C1.69647 2.6875 1.58519 2.73359 1.50314 2.81564C1.42109 2.89769 1.375 3.00897 1.375 3.125C1.375 3.24103 1.42109 3.35231 1.50314 3.43436C1.58519 3.51641 1.69647 3.5625 1.8125 3.5625H2.28325L3.02963 12.89C3.06482 13.3285 3.26391 13.7377 3.58724 14.0361C3.91057 14.3345 4.33442 14.5001 4.77438 14.5H10.2256C10.6656 14.5001 11.0894 14.3345 11.4128 14.0361C11.7361 13.7377 11.9352 13.3285 11.9704 12.89L12.7168 3.5625H13.1875C13.3035 3.5625 13.4148 3.51641 13.4969 3.43436C13.5789 3.35231 13.625 3.24103 13.625 3.125C13.625 3.00897 13.5789 2.89769 13.4969 2.81564C13.4148 2.73359 13.3035 2.6875 13.1875 2.6875H12.3169C12.314 2.68748 12.311 2.68748 12.3081 2.6875H10.125ZM11.8383 3.5625L11.098 12.82C11.0804 13.0393 10.9809 13.2439 10.8192 13.3931C10.6575 13.5422 10.4456 13.625 10.2256 13.625H4.77438C4.5544 13.625 4.34247 13.5422 4.18081 13.3931C4.01914 13.2439 3.9196 13.0393 3.902 12.82L3.16175 3.5625H11.8383ZM5.28713 4.4375C5.40292 4.43081 5.51663 4.47037 5.60326 4.54748C5.68989 4.6246 5.74236 4.73296 5.74913 4.84875L6.18663 12.2863C6.19122 12.4007 6.15076 12.5124 6.07394 12.5973C5.99712 12.6822 5.89005 12.7336 5.77573 12.7405C5.66141 12.7474 5.54896 12.7092 5.46251 12.634C5.37607 12.5589 5.32252 12.4529 5.31337 12.3387L4.875 4.90125C4.87145 4.84377 4.87928 4.78616 4.89804 4.73172C4.9168 4.67727 4.94613 4.62707 4.98433 4.58399C5.02254 4.5409 5.06888 4.50578 5.12069 4.48064C5.1725 4.45551 5.22876 4.44085 5.28625 4.4375H5.28713ZM9.71288 4.4375C9.77036 4.44085 9.82663 4.45551 9.87844 4.48064C9.93025 4.50578 9.97658 4.5409 10.0148 4.58399C10.053 4.62707 10.0823 4.67727 10.1011 4.73172C10.1198 4.78616 10.1277 4.84377 10.1241 4.90125L9.68662 12.3387C9.68429 12.3969 9.67038 12.454 9.64571 12.5067C9.62104 12.5594 9.58611 12.6066 9.54296 12.6457C9.4998 12.6847 9.4493 12.7147 9.3944 12.734C9.3395 12.7533 9.2813 12.7614 9.22322 12.7579C9.16514 12.7544 9.10834 12.7394 9.05614 12.7137C9.00395 12.6879 8.9574 12.6521 8.91924 12.6082C8.88107 12.5642 8.85205 12.5131 8.83387 12.4579C8.8157 12.4026 8.80873 12.3443 8.81338 12.2863L9.25088 4.84875C9.25764 4.73296 9.31011 4.6246 9.39674 4.54748C9.48337 4.47037 9.59708 4.43081 9.71288 4.4375ZM7.5 4.4375C7.61603 4.4375 7.72731 4.48359 7.80936 4.56564C7.89141 4.64769 7.9375 4.75897 7.9375 4.875V12.3125C7.9375 12.4285 7.89141 12.5398 7.80936 12.6219C7.72731 12.7039 7.61603 12.75 7.5 12.75C7.38397 12.75 7.27269 12.7039 7.19064 12.6219C7.10859 12.5398 7.0625 12.4285 7.0625 12.3125V4.875C7.0625 4.75897 7.10859 4.64769 7.19064 4.56564C7.27269 4.48359 7.38397 4.4375 7.5 4.4375Z" fill="black"/>
    </g>
    <defs>
    <clipPath id="clip0_2041_46473">
    <rect width="14" height="14" fill="white" transform="translate(0.5 0.5)"/>
    </clipPath>
    </defs>
</svg>
