<svg xmlns="http://www.w3.org/2000/svg" width="16" height="16" viewBox="0 0 16 16" fill="none">
<g clip-path="url(#clip0_3299_53353)">
<path d="M5.49951 5.49927C5.63212 5.49927 5.7593 5.55195 5.85307 5.64571C5.94683 5.73948 5.99951 5.86666 5.99951 5.99927V11.9993C5.99951 12.1319 5.94683 12.2591 5.85307 12.3528C5.7593 12.4466 5.63212 12.4993 5.49951 12.4993C5.3669 12.4993 5.23973 12.4466 5.14596 12.3528C5.05219 12.2591 4.99951 12.1319 4.99951 11.9993V5.99927C4.99951 5.86666 5.05219 5.73948 5.14596 5.64571C5.23973 5.55195 5.3669 5.49927 5.49951 5.49927ZM7.99951 5.49927C8.13212 5.49927 8.2593 5.55195 8.35307 5.64571C8.44683 5.73948 8.49951 5.86666 8.49951 5.99927V11.9993C8.49951 12.1319 8.44683 12.2591 8.35307 12.3528C8.2593 12.4466 8.13212 12.4993 7.99951 12.4993C7.8669 12.4993 7.73973 12.4466 7.64596 12.3528C7.55219 12.2591 7.49951 12.1319 7.49951 11.9993V5.99927C7.49951 5.86666 7.55219 5.73948 7.64596 5.64571C7.73973 5.55195 7.8669 5.49927 7.99951 5.49927ZM10.9995 5.99927C10.9995 5.86666 10.9468 5.73948 10.8531 5.64571C10.7593 5.55195 10.6321 5.49927 10.4995 5.49927C10.3669 5.49927 10.2397 5.55195 10.146 5.64571C10.0522 5.73948 9.99951 5.86666 9.99951 5.99927V11.9993C9.99951 12.1319 10.0522 12.2591 10.146 12.3528C10.2397 12.4466 10.3669 12.4993 10.4995 12.4993C10.6321 12.4993 10.7593 12.4466 10.8531 12.3528C10.9468 12.2591 10.9995 12.1319 10.9995 11.9993V5.99927Z" fill="white"/>
<path fill-rule="evenodd" clip-rule="evenodd" d="M14.4995 2.99927C14.4995 3.26448 14.3942 3.51884 14.2066 3.70637C14.0191 3.89391 13.7647 3.99927 13.4995 3.99927H12.9995V12.9993C12.9995 13.5297 12.7888 14.0384 12.4137 14.4135C12.0387 14.7886 11.5299 14.9993 10.9995 14.9993H4.99951C4.46908 14.9993 3.96037 14.7886 3.5853 14.4135C3.21023 14.0384 2.99951 13.5297 2.99951 12.9993V3.99927H2.49951C2.2343 3.99927 1.97994 3.89391 1.7924 3.70637C1.60487 3.51884 1.49951 3.26448 1.49951 2.99927V1.99927C1.49951 1.73405 1.60487 1.4797 1.7924 1.29216C1.97994 1.10462 2.2343 0.999268 2.49951 0.999268H5.99951C5.99951 0.734051 6.10487 0.479697 6.29241 0.292161C6.47994 0.104624 6.7343 -0.000732422 6.99951 -0.000732422H8.99951C9.26473 -0.000732422 9.51908 0.104624 9.70662 0.292161C9.89415 0.479697 9.99951 0.734051 9.99951 0.999268H13.4995C13.7647 0.999268 14.0191 1.10462 14.2066 1.29216C14.3942 1.4797 14.4995 1.73405 14.4995 1.99927V2.99927ZM4.11751 3.99927L3.99951 4.05827V12.9993C3.99951 13.2645 4.10487 13.5188 4.29241 13.7064C4.47994 13.8939 4.7343 13.9993 4.99951 13.9993H10.9995C11.2647 13.9993 11.5191 13.8939 11.7066 13.7064C11.8942 13.5188 11.9995 13.2645 11.9995 12.9993V4.05827L11.8815 3.99927H4.11751ZM2.49951 2.99927V1.99927H13.4995V2.99927H2.49951Z" fill="white"/>
</g>
<defs>
<clipPath id="clip0_3299_53353">
<rect width="16" height="16" fill="white"/>
</clipPath>
</defs>
</svg>
