<svg width="16" height="17" viewBox="0 0 16 17" fill="none" xmlns="http://www.w3.org/2000/svg">
  <g clip-path="url(#clip0_801_16865)">
  <path d="M10.9996 2.39893V3.39893H14.4996C14.6322 3.39893 14.7594 3.4516 14.8532 3.54537C14.947 3.63914 14.9996 3.76632 14.9996 3.89893C14.9996 4.03153 14.947 4.15871 14.8532 4.25248C14.7594 4.34625 14.6322 4.39893 14.4996 4.39893H13.9616L13.1086 15.0589C13.0684 15.5601 12.8409 16.0278 12.4714 16.3688C12.1018 16.7097 11.6174 16.899 11.1146 16.8989H4.88463C4.38183 16.899 3.89743 16.7097 3.52791 16.3688C3.15839 16.0278 2.93086 15.5601 2.89063 15.0589L2.03763 4.39893H1.49963C1.36703 4.39893 1.23985 4.34625 1.14608 4.25248C1.05231 4.15871 0.999634 4.03153 0.999634 3.89893C0.999634 3.76632 1.05231 3.63914 1.14608 3.54537C1.23985 3.4516 1.36703 3.39893 1.49963 3.39893H4.99963V2.39893C4.99963 2.0011 5.15767 1.61957 5.43897 1.33827C5.72028 1.05696 6.10181 0.898926 6.49963 0.898926H9.49963C9.89746 0.898926 10.279 1.05696 10.5603 1.33827C10.8416 1.61957 10.9996 2.0011 10.9996 2.39893ZM5.99963 2.39893V3.39893H9.99963V2.39893C9.99963 2.26632 9.94696 2.13914 9.85319 2.04537C9.75942 1.9516 9.63224 1.89893 9.49963 1.89893H6.49963C6.36703 1.89893 6.23985 1.9516 6.14608 2.04537C6.05231 2.13914 5.99963 2.26632 5.99963 2.39893ZM4.49963 5.92793L4.99963 14.4279C5.0023 14.4944 5.0182 14.5596 5.04639 14.6198C5.07458 14.6801 5.11451 14.7341 5.16383 14.7787C5.21314 14.8233 5.27086 14.8576 5.33361 14.8796C5.39635 14.9017 5.46286 14.9109 5.52924 14.907C5.59562 14.903 5.66053 14.8858 5.72018 14.8564C5.77984 14.827 5.83303 14.786 5.87665 14.7358C5.92026 14.6856 5.95343 14.6272 5.97421 14.5641C5.99498 14.5009 6.00294 14.4342 5.99763 14.3679L5.49763 5.86793C5.49497 5.80148 5.47907 5.73624 5.45088 5.67601C5.42268 5.61578 5.38276 5.56179 5.33344 5.51718C5.28412 5.47257 5.22641 5.43825 5.16366 5.41622C5.10092 5.39419 5.03441 5.3849 4.96803 5.3889C4.90165 5.39289 4.83674 5.41008 4.77708 5.43946C4.71743 5.46885 4.66424 5.50984 4.62062 5.56003C4.577 5.61023 4.54384 5.66862 4.52306 5.73179C4.50229 5.79496 4.49432 5.86164 4.49963 5.92793ZM11.0296 5.39993C10.8973 5.39228 10.7673 5.43749 10.6683 5.52562C10.5693 5.61376 10.5094 5.7376 10.5016 5.86993L10.0016 14.3699C9.99734 14.5003 10.0442 14.6272 10.1321 14.7235C10.22 14.8198 10.3421 14.878 10.4724 14.8855C10.6026 14.8931 10.7306 14.8495 10.8291 14.764C10.9276 14.6785 10.9888 14.5579 10.9996 14.4279L11.4996 5.92793C11.5073 5.79559 11.4621 5.66564 11.3739 5.56663C11.2858 5.46762 11.162 5.40766 11.0296 5.39993ZM7.99963 5.39893C7.86703 5.39893 7.73985 5.4516 7.64608 5.54537C7.55231 5.63914 7.49963 5.76632 7.49963 5.89893V14.3989C7.49963 14.5315 7.55231 14.6587 7.64608 14.7525C7.73985 14.8462 7.86703 14.8989 7.99963 14.8989C8.13224 14.8989 8.25942 14.8462 8.35319 14.7525C8.44696 14.6587 8.49963 14.5315 8.49963 14.3989V5.89893C8.49963 5.76632 8.44696 5.63914 8.35319 5.54537C8.25942 5.4516 8.13224 5.39893 7.99963 5.39893Z" fill="#6C757D"/>
  </g>
  <defs>
  <clipPath id="clip0_801_16865">
  <rect width="16" height="16" fill="white" transform="translate(0 0.899902)"/>
  </clipPath>
  </defs>
</svg>
