<svg width="16" height="16" viewBox="0 0 16 16" fill="none" xmlns="http://www.w3.org/2000/svg">
<g clip-path="url(#clip0_2985_36055)">
<rect width="16" height="16" fill="white" fill-opacity="0.01"/>
<g clip-path="url(#clip1_2985_36055)">
<path d="M13.9995 0.999268C14.2647 0.999268 14.5191 1.10462 14.7066 1.29216C14.8942 1.4797 14.9995 1.73405 14.9995 1.99927V9.99927C14.9995 10.2645 14.8942 10.5188 14.7066 10.7064C14.5191 10.8939 14.2647 10.9993 13.9995 10.9993H4.41351C3.88312 10.9994 3.3745 11.2102 2.99951 11.5853L0.999512 13.5853V1.99927C0.999512 1.73405 1.10487 1.4797 1.2924 1.29216C1.47994 1.10462 1.7343 0.999268 1.99951 0.999268H13.9995ZM1.99951 -0.000732422C1.46908 -0.000732422 0.960371 0.209981 0.585298 0.585054C0.210225 0.960127 -0.000488281 1.46883 -0.000488281 1.99927V14.7923C-0.000467266 14.8912 0.0289043 14.9879 0.083909 15.0701C0.138914 15.1524 0.217079 15.2164 0.308511 15.2542C0.399943 15.292 0.500533 15.3019 0.597548 15.2825C0.694563 15.2631 0.783642 15.2153 0.853512 15.1453L3.70651 12.2923C3.894 12.1047 4.14832 11.9993 4.41351 11.9993H13.9995C14.5299 11.9993 15.0387 11.7886 15.4137 11.4135C15.7888 11.0384 15.9995 10.5297 15.9995 9.99927V1.99927C15.9995 1.46883 15.7888 0.960127 15.4137 0.585054C15.0387 0.209981 14.5299 -0.000732422 13.9995 -0.000732422H1.99951Z" fill="white"/>
<path d="M2.99951 3.49927C2.99951 3.36666 3.05219 3.23948 3.14596 3.14571C3.23973 3.05195 3.3669 2.99927 3.49951 2.99927H12.4995C12.6321 2.99927 12.7593 3.05195 12.8531 3.14571C12.9468 3.23948 12.9995 3.36666 12.9995 3.49927C12.9995 3.63188 12.9468 3.75905 12.8531 3.85282C12.7593 3.94659 12.6321 3.99927 12.4995 3.99927H3.49951C3.3669 3.99927 3.23973 3.94659 3.14596 3.85282C3.05219 3.75905 2.99951 3.63188 2.99951 3.49927ZM2.99951 5.99927C2.99951 5.86666 3.05219 5.73948 3.14596 5.64571C3.23973 5.55195 3.3669 5.49927 3.49951 5.49927H12.4995C12.6321 5.49927 12.7593 5.55195 12.8531 5.64571C12.9468 5.73948 12.9995 5.86666 12.9995 5.99927C12.9995 6.13188 12.9468 6.25905 12.8531 6.35282C12.7593 6.44659 12.6321 6.49927 12.4995 6.49927H3.49951C3.3669 6.49927 3.23973 6.44659 3.14596 6.35282C3.05219 6.25905 2.99951 6.13188 2.99951 5.99927ZM2.99951 8.49927C2.99951 8.36666 3.05219 8.23948 3.14596 8.14571C3.23973 8.05195 3.3669 7.99927 3.49951 7.99927H8.49951C8.63212 7.99927 8.7593 8.05195 8.85307 8.14571C8.94683 8.23948 8.99951 8.36666 8.99951 8.49927C8.99951 8.63188 8.94683 8.75905 8.85307 8.85282C8.7593 8.94659 8.63212 8.99927 8.49951 8.99927H3.49951C3.3669 8.99927 3.23973 8.94659 3.14596 8.85282C3.05219 8.75905 2.99951 8.63188 2.99951 8.49927Z" fill="white"/>
</g>
</g>
<defs>
<clipPath id="clip0_2985_36055">
<rect width="16" height="16" fill="white"/>
</clipPath>
<clipPath id="clip1_2985_36055">
<rect width="16" height="16" fill="white"/>
</clipPath>
</defs>
</svg>